<?xml version="1.0" encoding="utf-8"?>
<!-- Generator: Adobe Illustrator 18.1.1, SVG Export Plug-In . SVG Version: 6.00 Build 0)  -->
<svg version="1.1" id="_x32_71e5882-3c8d-41ed-8a0a-1cb2b4d0cbc1"
	 xmlns="http://www.w3.org/2000/svg" xmlns:xlink="http://www.w3.org/1999/xlink" x="0px" y="0px" viewBox="633.7 86.8 635.6 727.4"
	 enable-background="new 633.7 86.8 635.6 727.4" xml:space="preserve">
<title>team spirit</title>
<ellipse opacity="0.1" fill="#6C63FF" enable-background="new    " cx="935.3" cy="727.8" rx="75.2" ry="16.9"/>
<ellipse opacity="0.1" fill="#6C63FF" enable-background="new    " cx="1110.2" cy="781.4" rx="135.7" ry="11.1"/>
<ellipse opacity="0.1" fill="#6C63FF" enable-background="new    " cx="772.1" cy="680" rx="102.1" ry="16.9"/>
<linearGradient id="SVGID_1_" gradientUnits="userSpaceOnUse" x1="783.7875" y1="129.9487" x2="783.7875" y2="721.0842" gradientTransform="matrix(1 0 0 -1 -31.16 818.11)">
	<stop  offset="0" style="stop-color:#808080;stop-opacity:0.25"/>
	<stop  offset="0.54" style="stop-color:#808080;stop-opacity:0.12"/>
	<stop  offset="1" style="stop-color:#808080;stop-opacity:0.1"/>
</linearGradient>
<path fill="url(#SVGID_1_)" d="M848.5,278.2c-2.2-14.5-15.4-48.5-15.4-48.5l0,0c-0.2-1-0.5-2-0.8-3c-9.4-32.2-22.3-35-22.3-35
	l-46.5-10c0.4,0.2,0.7,0.6,1,0.9c-0.2,0-0.5,0.1-0.7,0.1c-2.1-2.5-3.5-5.6-4.1-8.8c-0.1-0.5-0.2-1-0.2-1.5
	c12.9-12.6,13.2-33.3,0.6-46.2c-1-1-2.1-2-3.3-2.9c-0.5-0.4-1-0.8-1.5-1.1c2.2-2.3,2.3-5.6,0.6-8.8c-3.7-7.6-11.6-12.4-19.8-14.8
	c-6.3-1.8-13-2.4-19.2-0.4c-3.5,1.1-6.8,3-10.1,4.7c-6.2,3.1-13,5.5-17.6,10.6c-1.1,1.2-2.1,2.7-1.8,4.3c0.2,1.2,1.2,2.1,1.8,3.1
	c1.3,2.3,1,5.2,0.1,7.7c-0.9,2.5-2.2,4.9-2.9,7.4s-0.4,5.6,1.5,7.5c0.9,0.7,1.9,1.4,2.9,2c1.1,0.9,2,2,2.8,3.1
	c1.8,2.5,3.7,4.9,5.5,7.4c2.6,3.3,4.9,6.8,6.9,10.5c1.4,2.7,2.4,5.6,4.3,8c0.5,0.7,1.2,1.4,1.8,1.9l-0.5-0.2
	c1.6,1.6,3.8,2.5,6.1,2.5l0,0c0.1,0,0.2,0,0.3,0c0.4,0,0.8-0.2,1.1-0.5c0,0.3,0,0.7,0,1c0.1,3.6,0.1,7.4-0.2,10.9l-0.4-0.2
	c-1.3-0.6-2.9-0.5-4,0.4l-42.8,34.3c0,0-9.3,12.7-8,34.7l-7.5,32.9c0,0-9.4,27.9-2.2,47.9c7.2,20,11.4,31.4,11.4,31.4
	s2.9,22.7,7.2,24.5c4.3,1.8,6.2,2.9,6.2,2.9l0.9,5.4l0,0c0,0,0.3,0.5,0.8,1.4c3.2,5.5,14.8,24.8,21.6,22.8
	c0.9,5.3,1.2,10.6,1.1,15.9l6.7,45c0,0,4.7,12.3,4.4,18.7c-0.3,6.4,5.5,15.6,5.5,15.6c-3.5,6.4-4.5,13.8-2.9,21
	c2.7,12,6.2,67.3,6.2,67.3l5,13.4l-0.1,15.7c-0.4,2.6-1.5,5-3.1,7c-3.2,3.5-3,7.6-10.8,12.4s-12.8,6.6-12.8,13
	c0,0.9-0.1,1.8-0.2,2.7c-0.7,4.7-2.1,7.2,12.2,8.6c16.9,1.6,28.1-9.4,28.1-9.4s2.5-4.5,14.2-6.3c0,0,4-0.2,4.2-3.7
	c0.1-1.2,0.1-3.5,0-6.1c-0.2-4.9-0.7-10.6-1.3-10.9c-0.8-0.3-2.1-5.3-2.6-7h3.3c0,0,3-22.7,0-37.3s-0.3-25.1-0.3-25.1l-0.6-38.8
	c0,0-4-4.3-0.9-11.8s0-44.9,0-44.9s1.2-13.4,4.5-16.5s0.2-19.6,0-20.5l5.9,19.8c0,0,2.6,39.3,8.1,46.5l1.6,17.8
	c0,0,11.2,16.4,9.1,25.2s2.3,40.8,2.3,40.8v32.7c0,0-5,13.1,2,17.8l3-0.1c-1,0.9-1.8,2.3-2.9,3.5c-1.3,1.4-2.1,6.7-2.5,11.2
	c-0.4,3.8-0.5,7.2-0.5,7.2s3,4.8,8.7,5.1s24.3,14.5,24.3,14.5s18.4,0,23.2-1l0.3-0.1c1.5-0.5,2.8-1.5,3.6-2.9c1-1.6,1.3-3.5,0.9-5.4
	c-0.6-2.8-2.8-5.9-7.8-8.5c-12.3-6.5-14.1-12.5-14.1-12.5l-8.1-12.1h1.2c0,0-0.7-12.8,8.1-27.2l-0.6-63.4c0,0,3.6-21.8-2.6-33.7
	c0,0-0.5-12.5,3.6-16.4s-5.5-42.8-5.5-42.8s-2-20.9-4.3-40l0,0c9.7,9.2,19.8-24,21.5-29.9h0.3l-0.1-0.4c0.1-0.3,0.1-0.4,0.1-0.4l0,0
	c0,0-2.2-7.7-0.6-6.1s5.5-4.3,5.5-4.3s-0.6-31.8,6.2-47.8S848.5,278.2,848.5,278.2z M819.5,298.4L819.5,298.4
	c1,19.3-0.1,60.7-0.1,60.7s-1.3,5.3-2.8,11.6l-1-39.4l0,0l-1-37.1L819.5,298.4z M695.3,285c0,0,4.9,61.3,0,70.1
	c-1.4,2.5-2.6,7-3.5,12.1c-1.6-4.3-5-14.2-3.8-19.5c1.6-6.8-3.2-24.8-3.2-25.2s-0.4-10,3-17.3s1.2-10.5,1.2-10.5
	S691.9,282.7,695.3,285z"/>
<path fill="#D38884" d="M707.3,423.1c-4.3,18.8-21.3-9.6-25.1-16.4c-0.5-0.9-0.8-1.4-0.8-1.4l1.8-8.6l9.7-4c1.5,0.8,3,1.8,4.4,2.8
	C702.6,399.6,710.6,408.5,707.3,423.1z"/>
<path fill="#D38884" d="M839,392.4c0,0,0,0.1-0.1,0.4c0,0.1-0.1,0.3-0.1,0.5c-1.7,5.9-11.6,38.9-21.1,29.7
	c-10.5-10-5.4-33.1-5.4-33.1h0.1l22-2.3l4.4,4.5l0,0L839,392.4z"/>
<path fill="#444053" d="M826.3,554.7l0.6,63c-8.6,14.3-7.9,27-7.9,27l-28.4,1.1c-6.9-4.7-2-17.7-2-17.7v-32.4c0,0-4.4-31.7-2.3-40.5
	s-8.9-25-8.9-25l-1.6-17.7c-5.4-7.1-7.9-46.1-7.9-46.1l-5.8-19.7c0.2,0.9,3.2,17.3,0,20.3s-4.4,16.4-4.4,16.4s3.1,37.1,0,44.6
	s0.8,11.8,0.8,11.8l0.6,38.5c0,0-2.7,10.3,0.3,24.9s0,37.1,0,37.1h-30.5l0.1-15.7l-4.9-13.3c0,0-3.4-54.9-6.1-66.8
	c-1.6-7-0.6-14.4,2.8-20.8c0,0-5.7-9-5.4-15.4c0.3-6.4-4.4-18.5-4.4-18.5l-6.6-44.7c0.2-8.6-0.9-17.2-3.3-25.5
	c-3.8-12.7-9.5-29.4-9.5-29.4l6.4,0.6l32.2,2.9c0,0,78.4-5.3,81.9-0.9c0.7,1.4,1.2,3,1.5,4.6c3.5,15.8,8.2,65.3,8.2,65.3
	s9.5,38.6,5.4,42.4s-3.6,16.3-3.6,16.3C829.8,533,826.3,554.7,826.3,554.7z"/>
<path fill="#B07473" d="M760,664.1c-0.2,3.5-4.1,3.7-4.1,3.7c-11.5,1.8-13.9,6.3-13.9,6.3s-11,10.9-27.6,9.3
	c-14.1-1.4-12.7-3.9-12-8.5c0.1-0.9,0.2-1.7,0.2-2.6c0-6.4,4.9-8.2,12.5-13c7.6-4.8,7.4-8.8,10.6-12.3s3.5-10.3,3.5-10.3
	c3.6-6.3,12.7,1,12.7,1c0.4,2.2,14,1.9,14,1.9s1.8,7.2,2.7,7.6c0.6,0.3,1.1,5.9,1.3,10.8C760.1,660.6,760.1,662.9,760,664.1z"/>
<path opacity="0.1" enable-background="new    " d="M760,664.1c-0.2,3.5-4.1,3.7-4.1,3.7c-11.5,1.8-13.9,6.3-13.9,6.3
	s-11,10.9-27.6,9.3c-14.1-1.4-12.7-3.9-12-8.5c6.3,1.6,18.3,3.7,25.4-0.1c9.8-5.3,16.8-9,16.8-9l15.4-7.8
	C760.1,660.6,760.1,662.9,760,664.1z"/>
<path fill="#B07473" d="M846.4,683c-0.8,1.4-2,2.4-3.5,2.9l-0.3,0.1c-4.7,1-22.7,1-22.7,1s-18.3-14.1-23.8-14.4s-8.5-5.1-8.5-5.1
	s0.1-3.3,0.5-7.1c0.4-4.5,1.2-9.8,2.5-11.2c2.4-2.5,3-6,8.5-3.8c0,0,7.8-13.8,17.1-3.1l9.6,14.5c0,0,1.8,6,13.9,12.5
	c4.8,2.6,7,5.7,7.6,8.5C847.6,679.5,847.3,681.4,846.4,683z"/>
<path opacity="0.1" enable-background="new    " d="M846.4,683c-1.1,0.9-2.3,1.9-3.5,2.9l-0.3,0.1c-4.7,1-22.7,1-22.7,1
	s-18.3-14.1-23.8-14.4s-8.5-5.1-8.5-5.1s0.1-3.3,0.5-7.1c5.6,1.7,14.1,4.7,16.4,7.8c3.5,4.9,14.1,11.7,14.1,11.7s19.8-1.9,28.6-2.2
	C847.6,679.5,847.3,681.4,846.4,683z"/>
<path fill="#D38884" d="M769.3,189.2l-26.1,27.6c0,0-31.6-2.3-26.1-11.7c2.8-4.8,3.3-14.7,3-23.4c-0.2-8.4-1.1-15.5-1.1-15.5
	s44.4-22.1,41-1.5c-0.7,3.9-0.8,7.9-0.1,11.8C761.7,187,769.3,189.2,769.3,189.2z"/>
<path opacity="0.1" enable-background="new    " d="M759.9,164.8c-0.7,3.9-0.8,7.9-0.1,11.8c-6.1,6.2-14.5,9.7-23.2,9.7
	c-6,0-12.5-4.9-17.3-7.8c-0.2-8.4-0.3-12.2-0.3-12.2S763.3,144.2,759.9,164.8z"/>
<path fill="#D38884" d="M769.3,151.9c0,18.1-14.6,32.7-32.7,32.7c-18.1,0-32.7-14.6-32.7-32.7c0-18.1,14.6-32.7,32.7-32.7
	c7.4,0,14.6,2.5,20.4,7.1C764.7,132.5,769.3,141.9,769.3,151.9z"/>
<path opacity="0.1" enable-background="new    " d="M813.7,397.2c-8.1,19.4-60.5,19.8-60.5,19.8v-21.1l-3.2-0.2
	c1.4,6-1.9,20.8-1.9,20.8c-41.4,5.8-51.5-17.7-51.5-17.7l1.4-8.1l32.2,2.9c0,0,78.4-5.3,81.9-0.9C813,394.1,813.5,395.6,813.7,397.2
	z"/>
<path fill="#03DCC7" d="M753.2,414.4v-21.1l-3.2-0.2c1.4,6-1.9,20.8-1.9,20.8c-31.1,4.4-44.6-7.9-49.3-14.2
	c-0.9-1.1-1.6-2.3-2.2-3.5l12.6-71.1l3-104.6l4.5-18.4l1-8.8v-0.1h0.1l3.2,1.4l19.3,8.3l21.9-16.5l0.3-0.2l1.1-0.8l1.8,1.4l4.5,3.6
	l14.4,93.2c0,0,25,71.8,29.7,100.7c0.2,1.2,0.3,2.2,0.5,3.3C817.8,413.9,753.2,414.4,753.2,414.4z"/>
<circle fill="#67647E" cx="742.8" cy="204.9" r="1.9"/>
<circle fill="#67647E" cx="743.7" cy="221.9" r="1.9"/>
<circle fill="#67647E" cx="745.5" cy="249.4" r="1.9"/>
<circle fill="#67647E" cx="748.6" cy="279" r="1.9"/>
<circle fill="#67647E" cx="750.5" cy="306.8" r="1.9"/>
<circle fill="#67647E" cx="752.3" cy="336.4" r="1.9"/>
<circle fill="#67647E" cx="751.6" cy="365.7" r="1.9"/>
<path opacity="0.1" enable-background="new    " d="M719.1,335.4c0,0-2.1,27.2-5.9,35.1s-5.5,30.1-5.5,30.1l-8.9-1
	c-0.9-1.1-1.6-2.3-2.2-3.5l12.6-71.1l3-104.6l4.5-18.4l1-8.8l0.1-0.1c1-0.5,2.2-0.5,3.2,0.1l0.4,0.2c-0.1,0.4-0.2,0.7-0.4,1.1
	c-3.5,10.8-4.8,30.8-4.8,30.8s5,36.5,5.5,53.5C722.5,295.9,719.1,335.4,719.1,335.4z"/>
<path opacity="0.1" enable-background="new    " d="M697.3,395.5c-0.1,0.2-0.2,0.4-0.3,0.7c-3.4,5.8-12.2,9.5-14.8,10.5
	c-0.5-0.9-0.8-1.4-0.8-1.4l1.8-8.6l9.7-4C694.5,393.4,696,394.4,697.3,395.5z"/>
<path fill="#67647E" d="M673.8,256.5l-8.1,4.8l-7.4,32.7c0,0-9.2,27.7-2.1,47.5s11.2,31.1,11.2,31.1s2.8,22.5,7.1,24.3
	s6.1,2.8,6.1,2.8l0.8,5.4c0,0,11.5-3.9,15.6-10.8s-3-24-3-24s-6.1-14.6-4.5-21.4s-3.1-24.6-3.1-25s-0.4-9.9,3-17.2
	c3.4-7.3,1.1-10.4,1.1-10.4l-2.1-20.8L673.8,256.5z"/>
<path opacity="0.1" enable-background="new    " d="M814.4,391.1c0,0-21.4,8.1-28.2,1s-6.1-40.2-6.1-40.2s-6.5-61.1-10.6-71.2
	s-2-82.5-2-82.5s-2.8-9.4-5.2-11.8c-0.2-0.2-0.3-0.3-0.5-0.4l0.8,0.2l2.9,0.6l4.5,3.6l14.4,93.2c0,0,25,71.8,29.7,100.7L814.4,391.1
	z"/>
<path opacity="0.1" enable-background="new    " d="M839,393.2h-0.2c-2.7,0.4-26.4,3.2-26.5-1.7c0-0.6,0-1.1,0.1-1.7l22-2.3l4.4,4.5
	l0,0c0.1,0.3,0.1,0.5,0.2,0.7L839,393.2z"/>
<path fill="#67647E" d="M816.2,223.8l15.6,8.1c0,0,13,33.7,15.1,48.1c0,0,9.6,38.7,3,54.6s-6.1,47.5-6.1,47.5s-3.8,5.8-5.4,4.3
	s0.6,6.1,0.6,6.1s-26.7,3.5-26.8-1.7s6.1-30.3,6.1-30.3s1.7-59.6-0.7-68.9S816.2,223.8,816.2,223.8z"/>
<path opacity="0.1" enable-background="new    " d="M769.7,287.2c0,0-8.8,21.5-11.6,22.9s0.6,7.1,0.6,7.1S774.6,294.9,769.7,287.2z"
	/>
<path opacity="0.1" enable-background="new    " d="M764.4,211.8c0.1-0.4-10.5,10.4-13.3,12S761.5,223.7,764.4,211.8z"/>
<path opacity="0.1" enable-background="new    " d="M735,285.5c0,0-16.1,10.4-14,14.6S735,285.5,735,285.5z"/>
<path opacity="0.1" enable-background="new    " d="M764.3,437.8c0,0,13.7,8.8,35.1,11L764.3,437.8z"/>
<path opacity="0.1" enable-background="new    " d="M731.3,459c0,0,12.7,16,18.5,16.4C755.7,475.8,731.3,459,731.3,459z"/>
<path opacity="0.1" enable-background="new    " d="M749.2,521.7c-0.6,0.3-7.2,14.4-14,14.9C728.4,537,749.2,521.7,749.2,521.7z"/>
<path opacity="0.1" enable-background="new    " d="M808.2,552.7c0,0,12.6-2.8,15.4,6.2C823.6,558.9,822.7,556.1,808.2,552.7z"/>
<path opacity="0.1" enable-background="new    " d="M799.7,604.5c0,0,15.3-3.1,18.5,1.1S799.7,604.5,799.7,604.5z"/>
<path opacity="0.1" enable-background="new    " d="M756.4,611.7c0,0.1-15.6,3.1-15,5.1s16.6,1.7,17.2-1.4
	C759,613.8,758.1,612.1,756.4,611.7C756.5,611.7,756.4,611.7,756.4,611.7z"/>
<path opacity="0.1" enable-background="new    " d="M794.6,625.1c0,0,25.6-3.1,24,2.3S794.6,625.1,794.6,625.1z"/>
<path opacity="0.1" enable-background="new    " d="M660.7,310.2c0.1,0.4,16.8,2.7,19.1,8.1c0,0-16.4-7.6-19-7.6"/>
<path opacity="0.1" enable-background="new    " d="M684.2,353.9c0,0-13.9,4.4-12.9,11S669.9,361.8,684.2,353.9z"/>
<path opacity="0.1" enable-background="new    " d="M677.8,387.6c0,0,5-6.9,9.9-5.7S677.8,387.6,677.8,387.6z"/>
<path opacity="0.1" enable-background="new    " d="M757,126.3c-0.5,0.5-1,0.9-1.6,1.2c-4,2.3-5.1,5.9-7,10.1
	c-1.8,3.8-3.7,7.8-7.3,9.9c-4.6,2.8-10.7,1.8-15.5,4.2c-4.4,2.3-6.9,6.9-6.4,11.8c0.3,1.8,0.8,3.7,1.4,5.4c1.1,3.8,1.6,7.8,1.5,11.8
	c0,0.1,0,0.2,0,0.4c-16.1-8.1-22.7-27.7-14.6-43.8c8.1-16.1,27.7-22.7,43.8-14.6C753.3,123.7,755.2,124.9,757,126.3L757,126.3z"/>
<path fill="#585268" d="M756.1,116.5c-3.6-7.5-11.4-12.3-19.4-14.6c-6.1-1.8-12.8-2.4-18.9-0.4c-3.5,1.1-6.6,3-9.9,4.6
	c-6.1,3.1-12.7,5.5-17.3,10.5c-1.1,1.2-2,2.7-1.7,4.2c0.2,1.1,1.1,2,1.7,3.1c1.3,2.3,1,5.2,0.1,7.7c-0.9,2.5-2.2,4.8-2.8,7.4
	s-0.4,5.6,1.5,7.4c0.8,0.8,1.9,1.3,2.9,2c1,0.9,2,1.9,2.7,3.1l5.4,7.4c2.5,3.3,4.8,6.7,6.8,10.4c1.3,2.7,2.4,5.5,4.2,7.9
	s4.6,4.3,7.6,4.1c0.5,0,0.9-0.2,1.2-0.6c0.1-0.2,0.2-0.5,0.2-0.8c0.1-4-0.4-7.9-1.4-11.7c-0.6-1.8-1.1-3.6-1.4-5.4
	c-0.5-4.9,2.1-9.6,6.4-11.8c4.8-2.4,10.9-1.4,15.5-4.2c3.6-2.2,5.5-6.2,7.3-10c1.9-4.1,3-7.7,7-10.1S758.1,120.5,756.1,116.5z"/>
<path opacity="0.1" enable-background="new    " d="M741.5,650.8c0,0,5,6.4,3.7,10S741.5,650.8,741.5,650.8z"/>
<path opacity="0.1" enable-background="new    " d="M809.1,666.7c0,0,1.1-8.5,5.6-8.6s4.7-0.5,8.1,0.8s6.6,3.3,5.6,3.6
	s-5.8-4.9-10.8-2.2C814.4,662,811.6,664.2,809.1,666.7z"/>
<path opacity="0.1" enable-background="new    " d="M726.5,213.6l14-9.8c0,0-20.5-12.1-22.9-10.4s-4.1,17-4.1,17L726.5,213.6z"/>
<path fill="#E1E7EF" d="M726.5,213l14-10c0,0-20.5-12.1-22.9-10.4s-4.1,17.8-4.1,17.8L726.5,213z"/>
<path fill="#03DCC7" d="M726.5,213l14-10c0,0-20.5-12.1-22.9-10.4s-4.1,17.8-4.1,17.8L726.5,213z"/>
<path fill="#67647E" d="M719.9,192.6l-0.4-0.2c-1.3-0.7-2.8-0.5-3.9,0.4l-42,34.1c0,0-9.1,12.6-7.9,34.4l24.8,35.1
	c0,0,2.8-11.9,6.2-9.6c0,0,4.8,60.9,0,69.6s-6.9,41.6-6.9,41.6l16.3,1.8c0,0,1.7-22.2,5.5-30.1c3.8-7.9,5.9-35.1,5.9-35.1
	s3.4-39.6,2.9-56.5s-5.5-53.5-5.5-53.5S716.2,203.1,719.9,192.6z"/>
<path opacity="0.1" enable-background="new    " d="M761.7,207.4l-17.5-6.5c0,0,22.2-24.3,25-10.8L761.7,207.4z"/>
<path fill="#E1E7EF" d="M761.7,206.5l-17.5-6.5c0,0,22.2-24.3,25-10.8L761.7,206.5z"/>
<path fill="#03DCC7" d="M761.7,206.5l-17.5-6.5c0,0,22.2-24.3,25-10.8L761.7,206.5z"/>
<path opacity="0.1" enable-background="new    " d="M761.2,185.8c0.3,0,0.5,0,0.7,0.2L761.2,185.8z"/>
<path fill="#67647E" d="M762.8,184.1l46.3,10c0,0,12.7,2.8,21.9,34.8s-12.6,71.2-12.6,71.2l-4.8-4.1l2.4,93.4c0,0-21.4,8.1-28.2,1
	s-6.1-40.2-6.1-40.2s-6.5-61.1-10.6-71.2s-2-82.5-2-82.5S765.4,183.6,762.8,184.1z"/>
<path opacity="0.1" enable-background="new    " d="M805.2,243.7c-0.7,0.6-1.4,28.9,1.4,50.4c1.7,13.1,4.4,26.1,8,38.8l-4.2-86.2
	C810.4,246.6,807.2,241.8,805.2,243.7z"/>
<path opacity="0.1" enable-background="new    " d="M799.5,219.3c1.1,0.7,6.1,12.5,3.8,17.3S799.5,219.3,799.5,219.3z"/>
<path opacity="0.1" enable-background="new    " d="M755.8,116.5c-2.3-4.5-5.8-8.2-10.2-10.7c3.2,2.3,5.9,5.4,7.6,9
	c2,4,1.4,8-2.5,10.2c-3.9,2.2-5.1,5.9-7,10.1c-1.8,3.8-3.7,7.8-7.3,10c-4.6,2.8-10.7,1.8-15.5,4.2c-4.3,2.3-6.9,7-6.4,11.8
	c0.3,1.8,0.8,3.6,1.4,5.4c1.1,3.8,1.6,7.8,1.5,11.8c0,0.3,0,0.5-0.2,0.8c-0.3,0.4-0.7,0.6-1.2,0.6c-1.2,0.1-2.4-0.1-3.5-0.6
	c1.6,1.6,3.8,2.4,6,2.4c0.6,0.1,1.2-0.4,1.3-1c0-0.1,0-0.2,0-0.3c0.1-4-0.4-7.9-1.5-11.8c-0.6-1.8-1.1-3.6-1.4-5.4
	c-0.5-4.9,2.1-9.6,6.4-11.8c4.8-2.4,10.9-1.4,15.5-4.2c3.6-2.2,5.5-6.2,7.3-10c1.9-4.1,3-7.7,7-10.1
	C757.3,124.4,757.8,120.5,755.8,116.5z"/>
<linearGradient id="SVGID_2_" gradientUnits="userSpaceOnUse" x1="974.4399" y1="78.4753" x2="974.4399" y2="689.2797" gradientTransform="matrix(1 0 0 -1 -31.16 818.11)">
	<stop  offset="0" style="stop-color:#808080;stop-opacity:0.25"/>
	<stop  offset="0.54" style="stop-color:#808080;stop-opacity:0.12"/>
	<stop  offset="1" style="stop-color:#808080;stop-opacity:0.1"/>
</linearGradient>
<path fill="url(#SVGID_2_)" d="M1040.7,242.1c-13.8-0.3-25.9-10-32.8-21.9c-1.8-2.8-2.9-6-3.3-9.4c0-0.8,0.2-1.5,0.4-2.2
	c0.4-1.1,0.8-2.3,1-3.4c0.1-0.5,0.1-0.9,0-1.4c0,0,0,0,0-0.1c0.3-2.5-1.2-5-3-6.7s-4.2-3-6.1-4.7c-5.9-5.2-7.7-13.5-7.8-21.5v-0.4
	c0.1-3.4,0.3-6.8,0.3-10.2c0-1.9,0-3.9-0.3-5.8c-0.6-4.8-2.4-9.7-6.2-12.8c-9.9-8-26.4,0.3-36.7-7.2c-2.5-1.9-4.5-4.6-7.5-5.3
	c-2.3-0.6-4.6,0.2-6.8,0.9c-7.5,2.5-15.9,5.7-18.8,13c-1.7,4.2-1.2,8.9-2.8,13.1c-1,2.8-2.9,5.3-4.3,7.9c-1.1,2-1.7,4.3-1.6,6.6
	c-0.1,1.2,0,2.4,0.5,3.5c0.5,1.4,1.4,2.6,2.5,3.5c-0.4,0.8-0.9,1.6-1.5,2.3c-1.9,2.4-4.9,4-6.9,6.3c-3.7,4.3-3.6,10.1-1.7,15.2
	s5.1,9.6,7.4,14.5c1,2.1,1.8,4.5,0.8,6.6c-0.7,1.5-2.2,2.6-3.3,3.9c-1.7,1.9-2.7,4.2-3,6.7c-22.5,5.1-22.5,23.2-22.5,23.2l0,0
	l-12.2,30.6c0,0-2,5.1-4.2,12l-14.4-2.6l10,16.7c-1.9,6.8-3.2,13.1-2.8,16.3c0,0-4.5,21,3.5,24.7l17.5,7.9c0.8,0.5,1.6,0.8,2.4,1.1
	l0.7,0.3c0.5,0.3,1.1,0.3,1.6,0h0h0.2c0.3,0,0.7,0,1-0.1c0.4-0.2,0.7-0.5,0.9-1c0,0,0-0.1,0-0.1l5.3-1.5l4.5,5.3
	c2,1.4,4,2.6,5.9,3.7l-6.9,68.4c0,0-1.1,91-4.5,111.7c-1.2,7.7-1.3,12.9-0.8,16.5l-0.1,0.2c0.8,5.8,3,7,3,7v-0.1
	c0,0,0.1,0.1,0.1,0.1c1-2.7,2.2-5.2,3.6-7.7c0,0.5,0,1,0,1.5c-0.1,7.7-0.3,18.5-1.1,25.6c-1.4,12,3.5,51.5,3.5,51.5l1.7,36
	c0.3,6.1-1.1,12.2-4.1,17.5c-4,7.2-9.1,17.3-9.5,21.8c0,0.2,0,0.5,0,0.7l0,0l-8.6,10.3c0,0-3.3,5.2,4.2,7.3c4.1,1.1,11.1,0,16.7-1.3
	c5.1-1.2,8.7-5.7,8.7-10.9c1.4-5,3.8-9.6,7.1-13.6l1.4,8.3l9.4,2.3l1.2-22.7c0.5-1.3,0.7-2.6,0.7-4l0,0c1.9-16.2-4.4-14.7-4.4-14.7
	c0.2,0.1,0.3,0.3,0.3,0.6l-0.3-0.5l0,0c-3.8-7.6-2-20-2-20s5-36,6.7-45.5c1.2-6.7,0.7-28.7,0.3-41c0-0.5,0-1,0-1.5
	c14.6-0.2,32.6-0.7,45.2-1.9v1.5l-2.3,85c-0.2,5.4-1.3,10.8-3.3,15.8c0,0.1-0.1,0.2-0.1,0.3c-2.8,7.1-4.3,14.7-4.6,22.3l-1.1,27v0.8
	l0,0c-1.9,0.7-4.8,2.8-4.9,8.9c-0.1,8.9,15.5,5.9,15.5,5.9c15.6,0,15.8-16.3,15.8-16.3s0.5-14.9,1.2-24.9s-2.4-7.8-2.4-7.8
	l-0.2,28.4c0,0.1,0,0.1,0,0.2v-24.9l0.2-3.6v-0.1l0,0v-0.8l2-29.3c0,0,14.4-48.8,16.6-58.2c1.6-6.7,0.9-26.7,0.4-37.8
	c0-0.5,0-1-0.1-1.5c4.5-0.4,8.4-0.4,10-0.4h0.7c0,0-0.7-78.4-2.6-108s-4.8-56.6-12.3-64.8c-4.5-4.9-10.8-20.1-15-31.4
	c8.9,3.8,18.1,6.9,27.6,9c23.6,4.9,20.4-15.5,20.4-15.5l-2.4-38.7h0.2c-0.1-10.1-1-20.3-2.6-30.3c-1.3-7.7-3.2-15.6-6.1-22
	c2.6-1,5.1-2.1,7.6-3.2c6.4-2.8,13.6-6.8,14.5-13.8h-0.3C1040.6,243.1,1040.7,242.6,1040.7,242.1z M894.5,298.1L894.5,298.1
	c0,4-0.1,10.9-0.3,18.6l-7.5-10l7.5-12.2L894.5,298.1z M998,333.5l-12.5-4c2.2-3.5,4.8-6.7,7.7-9.5l1.1-1l-0.4,0.1l0.6-0.5l0.4-0.1
	l-0.6,0.5l0.7-0.1c0.8,3.1,2.2,6.1,4.3,8.5C1003.7,332.3,998,333.5,998,333.5L998,333.5z"/>
<polygon fill="#A27772" points="922.2,693.5 920.7,721.2 911.4,718.9 909.4,707.4 "/>
<polygon opacity="0.1" enable-background="new    " points="922.2,693.5 920.7,721.2 911.4,718.9 909.4,707.4 "/>
<path fill="#CC818C" d="M956.3,724.9l14.2,2.9l10.5-9.3v-26.2l0.2-3.6v-0.1l0,0v-0.8l2-29.1c0,0,14.2-48.5,16.4-57.8
	c1.6-6.6,0.9-26.5,0.4-37.5c-0.2-4.5-0.4-7.5-0.4-7.5l-31.3-7.6l-0.7,24.1l-2.3,84.4c-0.2,5.4-1.2,10.7-3.2,15.7l-0.1,0.3
	c-2.7,7.1-4.3,14.5-4.5,22.1l-1.1,26.8v0.7L956.3,724.9z"/>
<path opacity="0.1" enable-background="new    " d="M981.3,687.9v0.7l0,0V687.9L981.3,687.9z"/>
<path opacity="0.1" enable-background="new    " d="M956.3,724.9l14.2,2.9l10.5-9.3v-2.2c-0.1,1-0.6,1.9-1.5,2.4l-0.2,0.1
	c-4.9,2.6-10.4,3.7-15.9,3.2l-5.5-0.5c-0.5,0-1,0.2-1.5,0.4v0.7L956.3,724.9z"/>
<path fill="#B07473" d="M979.4,719.5l0.2-0.1c0.9-0.5,1.5-1.5,1.5-2.6l0.2-28.2c0,0,3.1-2.2,2.3,7.7s-1.2,24.7-1.2,24.7
	s-0.1,16.2-15.5,16.2c0,0-15.4,2.9-15.3-5.9s6.4-9.2,6.4-9.2l5.5,0.5C969,723.2,974.5,722.1,979.4,719.5z"/>
<path fill="#CC818C" d="M882.4,718.9c0.4,6.4,19.1,2.7,19.1,2.7l12.6-24.5c0,0,10.5-8.1,5.3-15.2c-0.3-0.4-0.5-0.8-0.8-1.2
	c0,0,0,0,0-0.1l0,0c-0.1-0.2-0.2-0.4-0.3-0.6l0,0c-3.8-7.5-1.9-19.8-1.9-19.8s4.9-35.8,6.6-45.2c1.2-6.7,0.7-28.5,0.3-40.7
	c-0.2-5.1-0.3-8.5-0.3-8.5l-31.1-8.3c0,0,0,3.9,0,9.3c-0.1,7.7-0.3,18.4-1.1,25.4c-1.3,11.9,3.4,51.2,3.4,51.2l1.7,35.8
	c0.3,6.1-1.1,12.1-4,17.4c-3.9,7.1-9,17.2-9.3,21.7C882.4,718.4,882.4,718.6,882.4,718.9z"/>
<path opacity="0.1" enable-background="new    " d="M882.4,718.9c0.4,6.4,19.1,2.7,19.1,2.7l12.6-24.5c0,0,10.5-8.1,5.3-15.2
	c-0.3-0.4-0.5-0.8-0.8-1.2c-0.2,3.7-4.2,13-4.2,13s-10.4,20.8-13.7,25.6s-17.7-0.9-18.2-1.1C882.3,718.4,882.3,718.6,882.4,718.9z"
	/>
<path fill="#B07473" d="M918.2,680c0,0,6.2-1.4,4.3,14.6l0,0c0.1,3.7-1.7,7.2-4.9,9.2c-4.4,2.8-11.2,8.7-14.7,20.3l0,0
	c0,5.1-3.5,9.6-8.5,10.8c-5.6,1.3-12.5,2.4-16.5,1.3c-7.5-2.1-4.2-7.2-4.2-7.2l8.6-10.2c0,0,14.9,5.9,18.2,1.1s13.7-25.6,13.7-25.6
	S920,681.4,918.2,680z"/>
<path opacity="0.1" enable-background="new    " d="M968.3,551.2l-0.7,24.1c8.3-0.8,14.3-1.9,15.3-3.5c2.2-3.4,10.2-4.9,17-5.5
	c-0.2-4.5-0.4-7.5-0.4-7.5L968.3,551.2z"/>
<path opacity="0.1" enable-background="new    " d="M891.8,569.7c0.8-1.6,2-3.1,3.4-4.1c3.3-1.8,2.9,11.8,2.9,11.8s11,0.1,25-0.1
	c-0.2-5.1-0.3-8.5-0.3-8.5l-31.1-8.3C891.8,560.4,891.8,564.3,891.8,569.7z"/>
<path fill="#444053" d="M888.2,572.9c0,0,3.7-10,7-11.8s2.9,11.8,2.9,11.8s80.8,0.7,84.9-5.5s27.5-5.9,27.5-5.9s-0.7-77.9-2.6-107.3
	s-4.8-56.2-12.1-64.3c-4.8-5.2-11.5-22.1-15.7-33.4c-2.3-6.2-3.8-10.6-3.8-10.6l-77.1,4.4l-0.6,6.3l-8.2,81.9
	c0,0-1.1,90.4-4.4,110.9S888.2,572.9,888.2,572.9z"/>
<g opacity="0.1">
	<path d="M976.7,567.4c4-6.2,27.5-5.9,27.5-5.9s-0.7-77.9-2.6-107.3S997,398,989.6,390c-4.8-5.2-11.5-22.1-15.7-33.4
		c-1.9-5.2-3.3-9.2-3.7-10.3l6-0.3c0,0,1.5,4.5,3.8,10.6c4.2,11.3,10.9,28.2,15.7,33.4c7.3,8.1,10.3,34.9,12.1,64.3
		c1.8,29.4,2.6,107.3,2.6,107.3s-23.5-0.4-27.6,5.9c-3.5,5.3-62.9,5.6-80.2,5.5C924.8,572.9,973.6,572.2,976.7,567.4z"/>
	<path d="M888.9,561.2c1.5-0.8,2.2,1.5,2.6,4.3c-1.3,2.4-2.5,4.9-3.5,7.5c0,0-2.1-1.2-3-7C886.3,563.8,887.6,561.9,888.9,561.2z"/>
</g>
<path fill="#585268" d="M912.1,157.5c-5.3,7.3,0.1,17.6-5.7,24.7c-1.9,2.3-4.8,4-6.8,6.3c-3.7,4.3-3.5,10.1-1.7,15.1s5,9.6,7.3,14.4
	c1,2.1,1.7,4.5,0.7,6.6c-0.7,1.5-2.2,2.6-3.3,3.8c-3.7,4.1-3.8,9.8-1.8,14.7s5.8,9,9.5,13.1c1.5,1.6,3.3,3.4,5.8,3.3
	c1.3-0.1,2.5-0.5,3.6-1.2c17.6-9,25-30.3,16.8-48.3c-3.1-7.4-8.3-14.6-8.3-22.4c0-6.2,3.2-12.2,3.8-18.4c0.7-7.5-3.8-19.5-12.9-22.8
	C919.8,151.2,914.8,153.7,912.1,157.5z"/>
<path opacity="0.1" enable-background="new    " d="M912.1,157.5c-5.3,7.3,0.1,17.6-5.7,24.7c-1.9,2.3-4.8,4-6.8,6.3
	c-3.7,4.3-3.5,10.1-1.7,15.1s5,9.6,7.3,14.4c1,2.1,1.7,4.5,0.7,6.6c-0.7,1.5-2.2,2.6-3.3,3.8c-3.7,4.1-3.8,9.8-1.8,14.7
	s5.8,9,9.5,13.1c1.5,1.6,3.3,3.4,5.8,3.3c1.3-0.1,2.5-0.5,3.6-1.2c17.6-9,25-30.3,16.8-48.3c-3.1-7.4-8.3-14.6-8.3-22.4
	c0-6.2,3.2-12.2,3.8-18.4c0.7-7.5-3.8-19.5-12.9-22.8C919.8,151.2,914.8,153.7,912.1,157.5z"/>
<path opacity="0.1" enable-background="new    " d="M971.3,422.3c-10.7,0.6-20.8,5.2-30.1,10.4s-18.4,11.1-28.5,14.8"/>
<path opacity="0.1" enable-background="new    " d="M964.6,447.5c-10.6,1-20.4,5.8-27.8,13.5c-2.6,2.8-4.8,5.8-7.5,8.5
	c-4.1,4-9.3,7-14.9,8.4"/>
<path opacity="0.1" enable-background="new    " d="M966.8,466.6c-8.5,2.4-16.2,7-22.3,13.5c-1.6,1.8-3.1,3.7-4.8,5.4
	c-8.8,9.5-21.3,14.5-33.4,19.3"/>
<path fill="#CC818C" d="M965.9,200.8c0.2,8.5,1,17.1,2.2,25.5c1,6,2.4,11.4,4.4,13.8c5.9,7-28.7,16.4-28.7,16.4l-20.4-15.8
	c0,0,16.2-14.9,8.6-29.4S965.9,200.8,965.9,200.8z"/>
<path opacity="0.1" enable-background="new    " d="M898.6,356.5h81.5c-2.3-6.2-3.8-10.6-3.8-10.6l-77.1,4.4L898.6,356.5z"/>
<path fill="#03DCC7" d="M893.4,355.1h87.2c-2.5-8.8,0-16.9,3.5-23.1c2.4-4.4,5.5-8.4,9.1-11.8l0.6-0.5l30.4-6.7l1.6-0.4
	c0,0,0.3-55.4-19.4-63c-19.6-7.6-31.3-17.9-31.3-17.9l-26.9,8.3l-19.8-10c-6.4,6.9-23.3,4.2-23.3,4.2c-27.7,3.2-27.7,24-27.7,24
	s16.2,37.7,17.4,37.7S893.4,355.1,893.4,355.1z"/>
<path opacity="0.1" enable-background="new    " d="M923.5,319.9c0,0-17.8-3.9-23.8-10.8"/>
<path opacity="0.1" enable-background="new    " d="M1013.1,299.2l-20.6,16.9c0.1,1.3,0.4,2.7,0.7,4l0.6-0.5l30.4-6.7L1013.1,299.2z
	"/>
<path opacity="0.1" enable-background="new    " d="M957.3,349.2c0,0,4.5,2.5,11.4,5.9h11.8c-2.5-8.8,0-16.9,3.5-23.1l-20.9-6.8
	C970.3,331.8,957.3,349.2,957.3,349.2z"/>
<path fill="#03DCC7" d="M889.7,251.5l-12.2,6.6l-12,30.4c0,0-12.5,33.3-11.3,42.1c0,0-4.4,20.8,3.4,24.5l20.4,9.2c1,0.4,2.1,0,2.5-1
	c0.2-0.5,0.2-1.1-0.1-1.6c-2.9-5.5-6.1-14.1-1-18.9l-5.9-12.2l21.3-34.8l7.1-12L889.7,251.5z"/>
<path opacity="0.1" enable-background="new    " d="M916.9,312.9c1.1,4.3,4.6,11,16.5,13.5l13,10.6l13.8,6.3l5.6,2.5l2.4-17.3
	l-5.4-3l-6.3-3.5c0,0-14.3-25.9-36.9-15C917.5,308.2,916.3,310.6,916.9,312.9z"/>
<path fill="#CC818C" d="M917.7,311.5c1.1,4.3,4.6,11,16.5,13.5l13,10.6l13.8,6.3l5.6,2.5l2.4-17.3l-5.4-3l-6.3-3.4
	c0,0-14.3-25.9-36.9-15C918.3,306.8,917.1,309.1,917.7,311.5z"/>
<circle opacity="0.1" enable-background="new    " cx="943.2" cy="191.6" r="31.6"/>
<circle fill="#CC818C" cx="943.2" cy="190.9" r="31.6"/>
<path opacity="0.1" enable-background="new    " d="M962.7,258.4l-9.5-18.5c0,0,13.9-5.6,14.9-12.1s13.3,7.6,10.7,12.3
	S962.7,258.4,962.7,258.4z"/>
<path fill="#03DCC7" d="M962.7,256.9l-9.5-18.5c0,0,13.9-5.6,14.9-12.1s13.3,7.6,10.7,12.3S962.7,256.9,962.7,256.9z"/>
<path fill="#F6F8FB" d="M885,304.6l52.5,70.6c0,0-19.3,10.5-46-8.3l-11.5-13.7l-32.9-55.4L885,304.6z"/>
<path fill="#CC818C" d="M874.6,342.9l4.8-0.1c0,0,29.2-28.3,36.4-14s-18.2,27.7-18.2,27.7l-7.7,4.2l-10,3l-6.4-8.6L874.6,342.9z"/>
<path opacity="0.1" enable-background="new    " d="M881.7,358.3c0.4,1.6,0.9,3.4,0.1,4.9c-0.2,0.4-0.5,0.7-0.9,1
	c-0.3,0.1-0.7,0.2-1,0.1c-2.5-0.2-4.9-1.4-6.6-3.3c-1.7-1.9-3.1-3.9-4.3-6.2c-1.3-2.3-2.7-4.8-2.2-7.4c0.5-2.8,3-4.8,5.4-6.3
	c4.8-3.2,5,0.5,6.1,4.6S880.6,354.1,881.7,358.3z"/>
<path fill="#03DCC7" d="M881,358.3c0.4,1.6,0.9,3.4,0.1,4.9c-0.2,0.4-0.5,0.7-0.9,1c-0.3,0.1-0.7,0.2-1,0.1
	c-2.5-0.2-4.9-1.4-6.6-3.3c-1.7-1.9-3.1-3.9-4.3-6.2c-1.3-2.3-2.7-4.8-2.2-7.4c0.5-2.8,3-4.8,5.4-6.3c4.8-3.2,5,0.5,6.1,4.6
	S879.8,354.1,881,358.3z"/>
<polygon opacity="0.1" enable-background="new    " points="894.8,295.8 897.3,291.7 895.2,299.3 "/>
<path opacity="0.1" enable-background="new    " d="M961,341.9l5.6,2.5l2.4-17.3l-5.4-3C967.4,328.4,964.1,336.4,961,341.9z"/>
<path opacity="0.1" enable-background="new    " d="M983.6,321.8c0,0-18.2,1.1-25.9-3.9"/>
<g opacity="0.1">
	<path d="M981.4,333.4c2.4-4.4,5.5-8.4,9.1-11.9c0.9-0.5,1.8-1,2.7-1.5l28.3-5.8l1.6-0.4c0,0,0.3-55.4-19.3-63
		c-11-4.2-21.3-10-30.6-17.2l2.2-0.7c0,0,11.8,10.3,31.3,17.9s19.3,63,19.3,63h-2.9l-29,5.5c0,0-1.3,1.2-1.6,1.6
		c-3.6,3.6-6.8,7.8-9.3,12.3c-3.8,7.1-4.7,15.5-2.4,23.2h-3C975.4,347.8,977.9,339.7,981.4,333.4z"/>
	<path d="M904,235.7c0.5-0.1,0.9-0.1,1.4-0.2c2,0.3,4,0.4,6,0.5C908.9,236.1,906.4,236,904,235.7z"/>
	<path d="M945.5,241.4l-17.9-9.1c0.4-0.3,0.7-0.6,1-1l18.7,9.5L945.5,241.4z"/>
</g>
<path fill="#03DCC7" d="M1013.8,297.7l12,14.7l2.5,39.9c0,0,3.2,20.3-20.1,15.4s-50.2-20-50.2-20s13-17.4,5.9-24l33.3,10.8
	c0,0,5.6-1.2,1.2-6.1s-5.2-13.7-5.2-13.7L1013.8,297.7z"/>
<path opacity="0.1" enable-background="new    " d="M1019.3,339.9l6.6,7.6C1022.4,346.4,1019.8,343.5,1019.3,339.9z"/>
<polygon opacity="0.1" enable-background="new    " points="1008,338.7 1018.3,351.9 1013.1,353.1 "/>
<path opacity="0.1" enable-background="new    " d="M905.4,176.4c-1.1-2.8-0.3-6,1.1-8.6s3.2-5.1,4.3-7.9c1.5-4.2,1-8.9,2.7-13
	c2.9-7.3,11.2-10.5,18.6-13c2.2-0.7,4.5-1.5,6.8-0.9c3,0.7,5,3.4,7.4,5.3c10.1,7.5,26.4-0.8,36.2,7.2c3.7,3,5.5,7.9,6.1,12.7
	s0,9.6-0.1,14.4c-0.2,8.4,1.4,17.6,7.7,23.2c1.9,1.7,4.1,2.9,6,4.7s3.3,4.2,3,6.7c-0.2,1.2-0.6,2.3-1,3.4c-1.3,4.4,0.6,9,2.9,13
	c6.8,11.8,18.8,21.5,32.4,21.7c-0.9,6.9-8,10.8-14.3,13.6c-8,3.6-16.5,7.1-25.3,6.7s-18-6.1-19.5-14.8c-0.5-3-0.5-6.6-3-8.2
	c-1.6-1-3.6-0.7-5.3-1.4c-2.4-1-3.6-3.7-4.4-6.2c-1.6-5.2-2.5-10.6-2.6-16c-0.1-6.4,0.7-13.5-2.9-18.8c-3.4-4.9-9.4-7.4-13.3-11.9
	c-3.6-4.2-7.5-9.2-13.4-10C927.1,177.1,910.2,188.2,905.4,176.4z"/>
<path fill="#585268" d="M905.4,174.9c-1.1-2.8-0.3-6,1.1-8.6s3.2-5.1,4.3-7.9c1.5-4.2,1-8.9,2.7-13c2.9-7.3,11.2-10.5,18.6-13
	c2.2-0.7,4.5-1.5,6.8-0.9c3,0.7,5,3.4,7.4,5.3c10.1,7.5,26.4-0.8,36.2,7.2c3.7,3,5.5,7.9,6.1,12.7s0,9.6-0.1,14.4
	c-0.2,8.4,1.4,17.6,7.7,23.2c1.9,1.7,4.1,2.9,6,4.7s3.3,4.2,3,6.7c-0.2,1.2-0.6,2.3-1,3.4c-1.3,4.4,0.6,9,2.9,13
	c6.8,11.7,18.8,21.5,32.3,21.7c-0.9,6.9-8,10.8-14.3,13.7c-8,3.6-16.5,7.1-25.3,6.6s-18-6.1-19.5-14.8c-0.5-3-0.5-6.6-3-8.2
	c-1.6-1-3.6-0.7-5.3-1.4c-2.4-1-3.6-3.7-4.4-6.2c-1.6-5.2-2.5-10.6-2.6-16c-0.1-6.4,0.7-13.5-2.9-18.8c-3.4-4.9-9.4-7.4-13.3-11.9
	c-3.6-4.2-7.5-9.2-13.4-10C927.1,175.6,910.2,186.7,905.4,174.9z"/>
<path opacity="0.1" enable-background="new    " d="M927.8,256.1l18.1-14.7c0,0-12.4-6.7-13.9-12.5s-11.4,2.7-10.4,7.9
	S927.8,256.1,927.8,256.1z"/>
<path fill="#03DCC7" d="M928.5,253.9l18.1-14.7c0,0-12.4-6.7-13.8-12.5s-11.4,2.7-10.4,7.9S928.5,253.9,928.5,253.9z"/>
<circle opacity="0.1" enable-background="new    " cx="947.4" cy="251.5" r="1.4"/>
<circle opacity="0.1" enable-background="new    " cx="947.4" cy="259.5" r="1.4"/>
<circle opacity="0.1" enable-background="new    " cx="947.4" cy="267.5" r="1.4"/>
<g opacity="0.1">
	<path d="M912.7,154.5c1.4-3.9,1.1-8.3,2.5-12.3c-0.6,0.9-1.1,1.8-1.5,2.8c-1.7,4.1-1.2,8.9-2.7,13l-0.1,0.2
		C911.6,157,912.2,155.8,912.7,154.5z"/>
	<path d="M1027,253.5c-8,3.6-16.5,7.1-25.3,6.6s-18-6.1-19.5-14.8c-0.5-3-0.5-6.6-3-8.2c-1.6-1-3.6-0.7-5.3-1.4
		c-2.4-1-3.6-3.7-4.4-6.2c-1.6-5.2-2.5-10.6-2.6-16c-0.1-6.4,0.8-13.5-2.9-18.8c-3.4-4.9-9.4-7.4-13.3-11.9
		c-3.6-4.2-7.5-9.2-13.4-10c-8.1-1.1-25,10-29.8-1.8c-0.8-2.2-0.7-4.7,0.3-6.8c-0.3,0.6-0.7,1.2-1,1.8c-1.4,2.7-2.2,5.9-1.1,8.6
		c4.8,11.8,21.7,0.7,29.8,1.8c5.9,0.8,9.8,5.9,13.4,10c3.9,4.5,9.9,7,13.3,11.9c3.7,5.3,2.8,12.3,2.9,18.8c0.1,5.4,1,10.8,2.6,16
		c0.8,2.5,2,5.2,4.4,6.2c1.7,0.7,3.7,0.5,5.3,1.4c2.6,1.6,2.5,5.2,3,8.2c1.6,8.7,10.7,14.3,19.5,14.8s17.3-3.1,25.3-6.6
		c5.8-2.6,12.3-6.1,14-12C1036.4,248.8,1031.5,251.4,1027,253.5z"/>
</g>
<linearGradient id="SVGID_3_" gradientUnits="userSpaceOnUse" x1="1147.0056" y1="32.9418" x2="1147.0056" y2="620.5607" gradientTransform="matrix(1 0 0 -1 -31.16 818.11)">
	<stop  offset="0" style="stop-color:#808080;stop-opacity:0.25"/>
	<stop  offset="0.54" style="stop-color:#808080;stop-opacity:0.12"/>
	<stop  offset="1" style="stop-color:#808080;stop-opacity:0.1"/>
</linearGradient>
<path fill="url(#SVGID_3_)" d="M1203.7,309.9c-21.2-12.2-29.2-15.2-29.2-15.2l-0.4-0.3c-2.3-1.8-4.1-4.1-5.3-6.7c0-0.5,0-1,0-1.5
	c0,0,0,0.1,0,0.1c0.3-6.5,4.9-12.3,9.3-17.4l11.1-13.1c1.3-1.3,2.2-2.8,2.9-4.5c0.2-0.9,0.3-1.9,0.3-2.8c0-0.4,0-0.8,0-1.1
	c-0.1-3.3-0.2-6.5-0.3-9.8c-0.1-2.8-0.8-6.4-3.7-7c-1.5-0.3-3.4,0.2-4.2-1c-0.3-0.5-0.3-1.1-0.2-1.7c0,0,0,0.1,0,0.1v-0.2
	c0.6-2.2,0.9-4.4,1.1-6.7c0.1-1.1-0.1-2.3-0.5-3.4c-1.6-4.7-7.3-6.6-12.3-7.5s-10.6-1.6-13.8-5.6c-0.8-1.3-1.8-2.6-2.7-3.8
	c-1.4-1.3-3.2-2.2-5.1-2.5c-6.2-1.5-12.8-1-18.6,1.6c-2.4,1.1-4.8,2.5-7.5,2.4s-5.1-2.1-7.8-2.5c-4.4-0.8-8.6,2.5-10.8,6.3
	c-1.3,2.3-2,4.8-2,7.4v0.4l0,0c-0.1,2.8,1,5.5,2.9,7.6c1.9,2,4.7,3.3,5.5,5.9c0.3,1,0.2,2.2,0.5,3.3c0,0.1,0.1,0.3,0.1,0.4l-0.1,0.2
	c-4.5,5.8-7,13-7,20.3c0.1,14.7,9.7,27.6,23.7,32c0,0.3,0,0.7,0,1c0,4-1.2,8.2-4.6,11.2l-30,12c0,0-18.1-2.1-24.6,24.3
	c-1,4.4-1.4,8.9-1.1,13.4c0.2,4-0.3,11-5,20.1c-7.4,14.5-5.7,47.9,9.4,51.1c14.3,3.1,19.9,1.8,20.5,1.7v0.6
	c-0.2,6.3-2.5,60.2-10.8,66.7c-2.3,1.8-1.9,3,0,3.8c0,0,0,0.3-0.1,1c-0.3,4-1.5,19-7,27.5c-6.4,9.9-5.7,67-5.7,67l-4.4,33.7
	c0,0,2.7,20.8,0,24.4c-2.4,3.2-5.6,80.1-6.3,96.8h-0.3c-2.7,0.2-5.1,1.7-6.5,4c-3.5,5.8-15.9,16.4-15.9,16.4
	c-2.7,3.8-12.6,7.5-17.9,9.2c-0.7,0.2-1.4,0.5-2,0.9c-2,1.1-3.6,2.7-4.5,4.8c-0.7,1.2-0.9,2.7-0.5,4c1.3,3.3,29.3,5.6,36.4,2.3
	c5.6-2.6,27.6-6,36.8-7.3c3.4-0.4,6.1-3.1,6.5-6.5c0.2-1.2-0.1-2.3-0.8-3.3l0,0c-1.8-2.2-2.6-8.1-3-12c0.7-0.3,1.4-0.7,2.1-1.2
	c-0.8-12,0.9-24,5-35.3c6.7-17.8,8.8-50.8,7.1-72.3c0,0,20.5-88.4,36.7-96.7l0,0c0.3,0.3,8.1,10.4,9.1,41.6
	c1,31.7,12.5,52.5,12.5,52.5s-5.1,53.8,0,73.9l-6.6,31.8c-0.5-0.4-0.8-0.7-0.8-0.7s0.2,0.9,0.5,2.3l-0.1,0.7l0.3,0.1
	c0.8,4,1.9,10.9,1.4,15c-0.3,2.3-0.9,5.5-1.3,8.6c-0.7,4.9-0.9,9.6,1.7,10.7c4.2,1.7,29,4,33.2-1.4c1.9-2.3,2.4-5.4,1.2-8.2
	c-0.3-0.7-0.7-1.5-1.2-2.1c0,0-6.6-10.8-4.7-18.3c0.3-1.5,0.1-3.1-0.8-4.3c0.3-3.7,1.8-20.9,5.7-35.6c4.2-15.9,13.1-50.7,6.6-73.6
	l0,0c-0.2-0.9-0.5-1.8-0.8-2.6c-3.8-12.5-5-25.6-3.7-38.6c-2.4-11.1-2.4-22.6,0-33.7c4-18.5,6.9-36.6,6.9-36.6s2.2-24.4,0.3-39.4
	c0-0.3-0.1-0.6-0.1-1l1.1-0.2c0,0-5.7-25.4-7.8-41.6c-0.5-3.8-1.1-8.6-1.8-13.8c1.9-0.3,3.7-0.8,5.5-1.4c18.2-6.3,23.9-63,23.9-63
	v-18C1218.8,349.8,1224.9,322.1,1203.7,309.9z M1068.2,748.1c-0.6-0.3-0.9-0.5-0.9-0.5l0,0L1068.2,748.1z"/>
<path fill="#65617D" d="M1192.7,637.4c7.9,22.7-1.3,59.5-5.6,76c-4.3,16.5-5.6,36.2-5.6,36.2c-16.8,2.6-28.9-0.7-28.9-0.7l6.9-33.9
	c-4.9-20.1,0-73.7,0-73.7s-11.2-20.7-12.2-52.3c-1-31.1-8.6-41.1-8.9-41.4l0,0c-15.8,8.2-35.8,96.4-35.8,96.4
	c1.6,21.4-0.3,54.3-6.9,72c-4,11.3-5.7,23.2-4.9,35.2c-2.3,2-5.5,2.3-9,1.7c-9.4-1.5-20.7-9.6-20.7-9.6s3.6-96,6.3-99.6
	s0-24.3,0-24.3l4.3-33.5c0,0-0.7-56.9,5.6-66.8c5.4-8.5,6.6-23.5,6.9-27.4c0-0.6,0-1,0-1l9.5-11.4c0,0,92.1-6.9,99,0
	c1.7,1.7,2.7,5.5,3.4,10.4c1.9,14.9-0.3,39.2-0.3,39.2s-2.8,18.1-6.7,36.5c-2.4,11.1-2.4,22.5,0,33.5
	C1187.8,611.9,1189,624.9,1192.7,637.4z"/>
<path fill="#A27772" d="M1187,781.6c-4.1,5.4-28.3,3.1-32.4,1.4c-2.5-1-2.3-5.8-1.6-10.6c0.4-3.1,1.1-6.3,1.3-8.5
	c0.7-5.9-2-17.9-2-17.9s5.4,5.8,6.7,0c0.6-2.5,2.6-3.8,4.7-4.5c2.8-0.9,5.8-0.7,8.5,0.5c4.3,1.9,11.4,5.8,10.1,11.2
	c-1.8,7.5,4.6,18.3,4.6,18.3c0.5,0.6,0.9,1.3,1.2,2.1C1189.3,776.2,1188.9,779.3,1187,781.6z"/>
<path opacity="0.1" enable-background="new    " d="M1187,781.6c-4.1,5.4-28.3,3.1-32.4,1.4c-2.5-1-2.3-5.8-1.6-10.6
	c2.6,1.2,7,2.2,14.4,1.5c1.7-0.2,3.4-0.2,5.2-0.2c5.2,0.2,10.5,0.1,15.7-0.3C1189.3,776.2,1188.9,779.3,1187,781.6z"/>
<path opacity="0.1" enable-background="new    " d="M1102.6,644c1.6,21.4-0.3,54.3-6.9,72c-4,11.3-5.7,23.2-4.9,35.2
	c-2.3,2-5.5,2.3-9,1.7c2-13.9,10.4-73.6,15.8-120.8c6.2-53.8,35-90.8,35-90.8l5.8,6.3C1122.7,555.9,1102.6,644,1102.6,644z"/>
<path fill="#FBBEBE" d="M1177.1,298.4l-4,19.7l-19.7,33l-24.3-10.4c0,0-33-34.5-12.3-39.5c2.5-0.5,4.8-1.6,6.9-3.1
	c4.1-3.1,5.3-7.5,5.4-11.9c-0.2-4.9-1.3-9.7-3.3-14.1l42.4-13.3c-1.7,5.6-2.7,11.3-3,17.2c-0.3,11.6,4,17.3,7.5,20
	C1174,297.1,1175.5,297.9,1177.1,298.4z"/>
<path opacity="0.1" enable-background="new    " d="M1168.2,258.9c-1.7,5.6-2.7,11.3-3,17.2c-0.8,0.9-1.6,1.8-2.5,2.6
	c-8.9,8.5-21.8,11.5-33.5,7.6c-0.2-4.9-1.3-9.7-3.4-14.1L1168.2,258.9z"/>
<path fill="#FBBEBE" d="M1173.1,253.5c0,18.5-15,33.6-33.5,33.6c-18.5,0-33.6-15-33.6-33.5c0-18.5,15-33.6,33.5-33.6c0,0,0,0,0,0
	c18.4-0.1,33.5,14.8,33.5,33.2C1173.1,253.3,1173.1,253.4,1173.1,253.5z"/>
<path opacity="0.1" enable-background="new    " d="M1177.1,298.4l-4,19.7l-19.7,33l-24.3-10.4c0,0-33-34.5-12.3-39.5
	c2.5-0.5,4.8-1.6,6.9-3.1c-3.7,10.3,11.7,31.7,11.7,31.7c1.8,2.6,5.9,1,5.9,1c9.9-1.5,28.3-30.1,31.3-34.9
	C1174,297.1,1175.5,297.9,1177.1,298.4z"/>
<path opacity="0.1" enable-background="new    " d="M1196.1,489.6c-5.8,1.3-38.2,8.5-50.4,6.7c-13.5-2-39.7-3.3-39.7-3.3
	s-16.7,0.9-21.8-1.5c0-0.6,0-1,0-1l9.5-11.4c0,0,92.1-6.9,99,0C1194.4,480.9,1195.5,484.8,1196.1,489.6z"/>
<path fill="#03DCC7" d="M1135.5,330.9c0,0-17.3-24-10.8-33.4l-29.3,12c0,0-17.6-2.1-24,24.2c-1,4.4-1.4,8.9-1.1,13.4
	c0.2,4-0.3,11-4.8,20c-7.2,14.5-5.6,47.7,9.2,51s20.1,1.6,20.1,1.6s-2,60.2-10.5,67.1s21.8,5.3,21.8,5.3s26.2,1.3,39.7,3.3
	s51.3-6.9,51.3-6.9s-5.6-25.3-7.6-41.4s-6.6-50.4-6.6-50.4l33.5-45.4c0,0,5.9-27.5-14.8-39.6s-28.5-15.1-28.5-15.1
	s-20.8,33.9-31.7,35.5C1141.4,331.9,1137.3,333.6,1135.5,330.9z"/>
<path opacity="0.1" enable-background="new    " d="M1097,340.5c0,0-0.3,10.9,1.7,15.1c2,4.3,9.2,28,9.2,28h-16.4
	c0,0,8.9-9.5,8.2-14.1S1097,340.5,1097,340.5z"/>
<path fill="#FBBEBE" d="M1145.7,422.3c0,0-36.3-8.9-39.7-16.4s-12.7-24.5-12.7-24.5l3.8-5.2l17.7,13.9c0,0,21,16.8,30.9,18.4
	C1155.6,410.2,1145.7,422.3,1145.7,422.3z"/>
<path opacity="5.000000e-002" enable-background="new    " d="M1145.7,422.3c0,0-36.3-8.9-39.7-16.4s-12.7-24.5-12.7-24.5l3.8-5.2
	l17.7,13.9c0,0,21,16.8,30.9,18.4C1155.6,410.2,1145.7,422.3,1145.7,422.3z"/>
<path fill="#FBBEBE" d="M1177.1,379.6v19.7h-3.2c-15.6,0-31,4-44.7,11.6l-5.9,3.3l-1.6,0.9l-10.2-23l9.5-8.5h0.5
	c2.3,0.2,12.4,1.1,16.7-0.4c4.1-1.4,9.1-5.8,21.1-2.7c5.9,1.5,10.9,8.1,16.6,6L1177.1,379.6z"/>
<path opacity="0.1" enable-background="new    " d="M1208.8,343.7l6.6,7.4V369c0,0-5.6,56.6-23.3,62.8s-49.5-3.6-49.5-3.6
	s-8.2-21.7-4.4-23c3.8-1.3,33.8-9.2,33.8-9.2s-0.4-33.2,6.2-43c0,0-4.3-30.9,10.5-31.6S1208.8,343.7,1208.8,343.7z"/>
<path fill="#03DCC7" d="M1209.8,343.7l6.6,7.4V369c0,0-5.6,56.6-23.3,62.8c-17.8,6.3-49.5-3.6-49.5-3.6s-8.2-21.7-4.3-23
	c3.8-1.3,33.8-9.2,33.8-9.2s-0.4-33.2,6.2-43c0,0-4.3-30.9,10.5-31.6S1209.8,343.7,1209.8,343.7z"/>
<path opacity="0.1" enable-background="new    " d="M1163.9,267.7c0.3-2.2,0-4.4-0.8-6.4c-0.9-2-3.1-3.5-5.2-3
	c-2.8,0.7-4,4.3-6.8,5.2c-2.3,0.7-4.9-0.9-6-3.1s-1.1-4.7-1.1-7.2c0-2.7,0-5.5,0-8.2c0-3-0.1-6.2-1.9-8.6c-2.3-2.9-7.7-4.2-11.3-4.1
	c-2.4,0-4.7,1-6.4,2.6c-1.9,1.6-4.2,2.8-6.8,2.4c-2.2-0.3-4.1-1.9-4.7-4.1v-0.1c11.1-14.8,32.2-17.8,47-6.6s17.8,32.2,6.6,47
	c-1.1,1.5-2.4,2.9-3.7,4.2C1163.3,274.4,1163.7,271.1,1163.9,267.7z"/>
<path fill="#7C5C5C" d="M1117.6,236.4c-2.2-0.3-4.1-1.9-4.7-4.1c-0.3-1.1-0.2-2.2-0.5-3.2c-0.8-2.6-3.5-3.9-5.4-5.9
	c-3.7-3.9-3.5-10.4-0.8-15.1c2.1-3.8,6.2-7,10.5-6.3c2.7,0.5,5,2.4,7.7,2.5c2.7,0.2,5-1.3,7.3-2.4c5.7-2.6,12.1-3.2,18.2-1.6
	c1.9,0.4,3.6,1.2,5,2.5c1,1.2,1.8,2.5,2.7,3.8c3.1,3.9,8.5,4.7,13.4,5.6s10.4,2.8,12,7.5c1.1,3.1,0,6.5-0.6,9.7
	c-0.2,0.7-0.1,1.4,0.1,2c0.8,1.3,2.7,0.7,4.1,1c2.8,0.6,3.5,4.2,3.6,7c0.1,3.2,0.2,6.5,0.3,9.7c0.1,1.2,0,2.4-0.3,3.6
	c-0.6,1.7-1.6,3.2-2.8,4.5l-10.9,13c-4.8,5.8-9.9,12.5-9,20c-2.3,1-5-1-5.7-3.3s-0.2-5,0.4-7.4c0.9-4.2,1.5-8.5,1.7-12.9
	c0.3-2.2,0-4.4-0.8-6.4c-0.9-2-3.1-3.5-5.2-3c-2.8,0.7-4,4.3-6.8,5.2c-2.3,0.7-4.9-0.9-6-3.1s-1.1-4.7-1.1-7.1V244
	c0-3-0.1-6.2-1.9-8.6c-2.3-2.9-7.7-4.2-11.3-4.1c-2.4,0-4.7,1-6.4,2.6C1122.4,235.6,1120.2,236.8,1117.6,236.4z"/>
<path opacity="0.1" enable-background="new    " d="M1125.1,339.6l10.3,42.3C1135.4,381.9,1143.6,381.9,1125.1,339.6z"/>
<path opacity="0.1" enable-background="new    " d="M1160.3,332.6c0,0-13.5,22.1-8.2,44.9l2.5,0.2
	C1154.6,377.7,1150.1,367.1,1160.3,332.6z"/>
<path opacity="0.1" enable-background="new    " d="M1168.8,457.5c0,0,16.6-5.5,17.8,7.2C1186.6,464.8,1183.5,456.1,1168.8,457.5z"
	/>
<path opacity="0.1" enable-background="new    " d="M1121,384.5c0,0-3.3,23,2.6,32.2c0,0-12,4.9-28.9,4l-2-36.2L1121,384.5z"/>
<path opacity="0.1" enable-background="new    " d="M1123.3,414.2l-1.6,0.9l-10.2-23l9.5-8.5h0.5l0,0
	C1121.4,384.6,1118.7,404.4,1123.3,414.2z"/>
<path fill="#03DCC7" d="M1121,383.5c0,0-3.3,23,2.6,32.2c0,0-12,4.9-28.9,4l-11.5-36.2L1121,383.5z"/>
<path fill="#A27772" d="M1092.6,767.6c-0.4,3.4-3,6.1-6.4,6.5c-8.9,1.3-30.4,4.7-35.9,7.3c-6.9,3.3-34.2,1-35.5-2.3
	c-0.4-1.3-0.2-2.8,0.5-4c0.9-2,2.5-3.7,4.4-4.7c0.6-0.4,1.3-0.6,2-0.9c5.1-1.7,14.9-5.3,17.5-9.2c0,0,12.1-10.6,15.6-16.3
	c1.3-2.3,3.7-3.8,6.3-3.9c2.9-0.1,6.1,1.3,7.4,7.6c0,0,15.8,9,20,1.1c0,0,0.7,12.1,3.3,15.4l0,0
	C1092.5,765.2,1092.8,766.4,1092.6,767.6z"/>
<path opacity="0.1" enable-background="new    " d="M1092.6,767.6c-0.4,3.4-3,6.1-6.4,6.5c-8.9,1.3-30.4,4.7-35.9,7.3
	c-6.9,3.3-34.2,1-35.5-2.3c-0.4-1.3-0.2-2.8,0.5-4c0.9-2,2.5-3.7,4.4-4.7c4.5,3,14.3,5.8,36.1,2.5c20.7-3.2,31-6.4,36-8.6l0,0
	C1092.5,765.2,1092.8,766.4,1092.6,767.6z"/>
<g opacity="0.1">
	<path d="M1182.3,229.9v-0.2c0.5-2.5,1.2-5,1-7.5c-0.2,2-0.5,4-1,6C1182.2,228.8,1182.2,229.3,1182.3,229.9z"/>
	<path d="M1163.1,260.6c0.5,1.2,0.8,2.5,0.8,3.8c0.1-1.8-0.1-3.6-0.8-5.2c-0.9-2-3.1-3.5-5.2-3c-2.8,0.7-4,4.3-6.8,5.2
		c-2.3,0.7-4.9-0.9-6-3.1s-1.1-4.7-1.1-7.2c0-2.8,0-5.5,0-8.2c0-3-0.1-6.2-1.9-8.6c-2.3-2.9-7.7-4.2-11.3-4.1c-2.4,0-4.7,1-6.4,2.6
		c-1.9,1.6-4.2,2.8-6.8,2.4c-2.2-0.3-4.1-1.9-4.7-4.1c-0.3-1.1-0.2-2.2-0.5-3.3c-0.8-2.6-3.5-3.9-5.4-5.9c-1.7-1.9-2.7-4.4-2.8-7
		c-0.3,3.1,0.7,6.1,2.8,8.4c1.8,2,4.6,3.3,5.4,5.9c0.3,1,0.2,2.2,0.5,3.3c0.7,2.2,2.5,3.7,4.7,4.1c2.6,0.4,4.8-0.8,6.8-2.4
		c1.7-1.6,4-2.6,6.4-2.6c3.6-0.1,9,1.2,11.3,4.1c1.8,2.4,1.9,5.6,1.9,8.6c0,2.8,0,5.5,0,8.2c0,2.4,0,5,1.1,7.1s3.7,3.8,6,3.1
		c2.8-0.9,4-4.5,6.8-5.2C1160,257.1,1162.2,258.7,1163.1,260.6z"/>
	<path d="M1190.2,251.6c-0.6,1.7-1.6,3.2-2.8,4.5l-10.9,13c-4.6,5.5-9.4,11.9-9,18.9c0.3-6.4,4.8-12.3,9-17.4l10.9-13
		c1.2-1.3,2.2-2.8,2.8-4.5c0.3-1.2,0.4-2.4,0.3-3.6C1190.4,250.2,1190.3,250.9,1190.2,251.6z"/>
	<path d="M1161.8,285.8c-0.2-0.6-0.3-1.2-0.3-1.8c-0.1,1.1,0,2.2,0.3,3.2c0.7,2.4,3.5,4.4,5.7,3.3c-0.1-0.5-0.1-1-0.1-1.4
		C1165.2,290.1,1162.5,288.2,1161.8,285.8z"/>
</g>
<path opacity="0.1" enable-background="new    " d="M1052.5,747.1c0,0,3.4,6,15.9,0.7"/>
<path opacity="0.1" enable-background="new    " d="M1157.8,748.5c0,0,10.7,12.7,24.3,4.2"/>
<path opacity="0.1" enable-background="new    " d="M1189.1,598.9c0,0-7.6,4.7-7.8,7.5s3.9-2,3.9-2L1189.1,598.9z"/>
<path opacity="0.1" enable-background="new    " d="M1192.1,635.3c-2.6,2.2-5.9,3.5-9.3,3.7c-5.7,0.3-5.2,7.7-1.5,5.4
	C1185,642.2,1192.1,635.3,1192.1,635.3z"/>
<path opacity="0.1" enable-background="new    " d="M1193.5,640.1c0,0-3.6,17.9-6.6,14.4"/>
</svg>
