<?xml version="1.0" encoding="utf-8"?>
<!-- Generator: Adobe Illustrator 18.1.1, SVG Export Plug-In . SVG Version: 6.00 Build 0)  -->
<svg version="1.1" id="a26a8f0d-4f9c-4927-88fb-2c6a33da07b1"
	 xmlns="http://www.w3.org/2000/svg" xmlns:xlink="http://www.w3.org/1999/xlink" x="0px" y="0px" viewBox="360 153.7 995 644.2"
	 enable-background="new 360 153.7 995 644.2" xml:space="preserve">
<title>Data points</title>
<g opacity="0.2">
	<path fill="#3F3D56" d="M1293.3,770.3c-0.5,0.9-1.1,1.8-1.7,2.7c-5.8-4.1-11.6-8-17.6-11.9c0.1-0.3,0.3-0.5,0.4-0.8
		c1.4-2.7,3.5-4.9,6-6.5c3.3-2,7-2.5,10-0.9s4.8,4.9,4.9,8.8C1295.4,764.6,1294.7,767.6,1293.3,770.3z"/>
	
		<ellipse transform="matrix(-0.8837 -0.4681 0.4681 -0.8837 2082.2922 2017.8008)" fill="#3F3D56" cx="1291.9" cy="750.2" rx="10.7" ry="14"/>
	
		<ellipse transform="matrix(-0.8837 -0.4681 0.4681 -0.8837 2104.48 1993.0537)" fill="#3F3D56" cx="1299.9" cy="735.1" rx="10.7" ry="14"/>
	
		<ellipse transform="matrix(-0.8837 -0.4681 0.4681 -0.8837 2126.6667 1968.2788)" fill="#3F3D56" cx="1307.9" cy="719.9" rx="10.7" ry="14"/>
	
		<ellipse transform="matrix(-0.8837 -0.4681 0.4681 -0.8837 2148.8677 1943.5172)" fill="#3F3D56" cx="1315.9" cy="704.8" rx="10.7" ry="14"/>
	<path display="none" fill="#03DCC7" d="M1335.3,582.4c-0.4-2.3-0.7-4.7-0.8-7l27,9.1l-27-14c0.8-14.1,7.4-27.3,18.2-36.5l26.2,37.8
		l-20.3-42.1c24-15,55.7-7.7,70.7,16.3c15,24,7.7,55.7-16.3,70.7c-2,1.3-4.1,2.4-6.3,3.4c0.7,3.6,0.9,7.3,0.8,11l-41.2-0.3l40.5,6.7
		c-2.8,17.1-14,31.7-29.8,38.7c5.1,27.9-13.4,54.6-41.3,59.6s-54.6-13.4-59.6-41.3c-4.2-23.3,8-46.4,29.7-56
		C1301.5,615.1,1313.8,592,1335.3,582.4L1335.3,582.4z"/>
	<path opacity="0.1" enable-background="new    " d="M1401.4,653.2c-5.4,10.2-14,18.2-24.5,22.9c5.1,27.9-13.4,54.6-41.3,59.6
		s-54.6-13.4-59.6-41.3c-4.2-23.3,8-46.4,29.7-56C1303.7,627.5,1404.1,648.1,1401.4,653.2z"/>
</g>
<g opacity="0.2">
	<path fill="#3F3D56" d="M1261.1,467.8c-0.6,1.6-1.4,3.2-2.3,4.6c-10.1-5.4-20.3-10.6-30.6-15.7c0.1-0.4,0.3-0.9,0.5-1.3
		c1.7-4.6,4.5-8.6,8.3-11.7c4.9-3.9,10.7-5.4,16-3.4s8.6,7,9.7,13.1C1263.5,458.3,1262.9,463.3,1261.1,467.8z"/>
	
		<ellipse transform="matrix(-0.9346 -0.3558 0.3558 -0.9346 2272.5354 1289.3767)" fill="#3F3D56" cx="1254.8" cy="435.7" rx="17.3" ry="22.7"/>
	
		<ellipse transform="matrix(-0.9346 -0.3558 0.3558 -0.9346 2300.8372 1242.7489)" fill="#3F3D56" cx="1264.7" cy="409.8" rx="17.3" ry="22.7"/>
	
		<ellipse transform="matrix(-0.9346 -0.3558 0.3558 -0.9346 2329.1465 1196.1108)" fill="#3F3D56" cx="1274.6" cy="383.9" rx="17.3" ry="22.7"/>
	
		<ellipse transform="matrix(-0.9346 -0.3558 0.3558 -0.9346 2357.4482 1149.483)" fill="#3F3D56" cx="1284.4" cy="358" rx="17.3" ry="22.7"/>
	<path display="none" fill="#03DCC7" d="M1291.3,157.5c-1.1-3.7-2-7.4-2.7-11.2l45.2,9.2l-46.2-17.2c-1.5-22.8,6.4-45.2,21.9-62
		l49.6,55.5l-41-63.5c35.7-28.8,87.9-23.2,116.7,12.4s23.2,87.9-12.4,116.7c-2.9,2.4-6,4.5-9.2,6.5c1.8,5.7,2.9,11.6,3.5,17.5
		l-66.2,7.7l66.4,2.6c-1.1,28-16.2,53.7-40.2,68.1c13.6,43.8-10.8,90.3-54.5,103.9c-43.8,13.6-90.3-10.8-103.9-54.5
		c-11.4-36.5,3.7-76.1,36.5-95.8C1243.3,216.9,1258.4,177.2,1291.3,157.5L1291.3,157.5z"/>
	<path display="none" opacity="0.1" enable-background="new    " d="M1411.6,258.2c-6.6,17.4-18.9,32.1-34.9,41.6
		c13.6,43.8-10.8,90.3-54.5,103.9c-43.8,13.6-90.3-10.8-103.9-54.5c-11.4-36.5,3.7-76.1,36.5-95.8
		C1249.4,236.3,1414.9,249.5,1411.6,258.2z"/>
</g>
<g opacity="0.2">
	<path fill="#3F3D56" d="M464.4,554c0.5,2,1.2,3.9,2,5.8c12.7-4.9,25.5-9.5,38.4-14c-0.1-0.5-0.2-1.1-0.4-1.6
		c-1.3-5.6-4.1-10.8-8.1-15c-5.2-5.3-11.9-7.9-18.3-6.3c-6.5,1.6-11.2,7-13.4,14C463.1,542.5,463,548.4,464.4,554z"/>
	
		<ellipse transform="matrix(-0.2372 -0.9715 0.9715 -0.2372 87.3761 1102.7087)" fill="#3F3D56" cx="476.6" cy="517" rx="27" ry="20.6"/>
	
		<ellipse transform="matrix(-0.2372 -0.9715 0.9715 -0.2372 108.8207 1055.4655)" fill="#3F3D56" cx="468.8" cy="485" rx="27" ry="20.6"/>
	
		<ellipse transform="matrix(-0.2372 -0.9715 0.9715 -0.2372 130.2855 1008.2529)" fill="#3F3D56" cx="461" cy="453" rx="27" ry="20.6"/>
	
		<ellipse transform="matrix(-0.2372 -0.9715 0.9715 -0.2372 151.7237 961.024)" fill="#3F3D56" cx="453.2" cy="420.9" rx="27" ry="20.6"/>
	<path display="none" fill="#03DCC7" d="M474.6,183.5c1.9-4.1,3.5-8.4,4.8-12.8l-54.7,4.2l57-13.5c5.2-26.7-0.9-54.3-16.7-76.4
		l-66.7,58.2L456,74.3c-37.8-39.3-100.3-40.6-139.6-2.8s-40.6,100.3-2.8,139.6c3.2,3.3,6.6,6.4,10.2,9.2c-2.9,6.5-5.2,13.2-6.7,20.1
		l77,18.8l-78.8-6.7c-2.9,33.2,11.2,65.7,37.4,86.3c-22.6,49.6-0.7,108.2,49,130.7c49.6,22.6,108.2,0.7,130.7-49
		c18.9-41.5,6.9-90.5-28.9-118.6C522.4,260.6,510.4,211.6,474.6,183.5L474.6,183.5z"/>
	<path opacity="0.1" enable-background="new    " d="M317.8,284.6c5.2,21.5,17.5,40.7,35,54.3c-22.6,49.6-0.7,108.2,49,130.7
		c49.6,22.6,108.2,0.7,130.7-49c18.9-41.5,6.9-90.5-28.9-118.6C512.4,282.6,315.1,273.8,317.8,284.6z"/>
</g>
<linearGradient id="SVGID_1_" gradientUnits="userSpaceOnUse" x1="874.17" y1="-7.97" x2="874.17" y2="611.03" gradientTransform="matrix(1 0 0 -1 -16.24 768.58)">
	<stop  offset="0" style="stop-color:#808080;stop-opacity:0.25"/>
	<stop  offset="0.54" style="stop-color:#808080;stop-opacity:0.12"/>
	<stop  offset="1" style="stop-color:#808080;stop-opacity:0.1"/>
</linearGradient>
<path fill="url(#SVGID_1_)" d="M1342.3,157.6H373.6c-4.8,0-8.6,3.9-8.6,8.6l0,0v592.9c0,9.6,7.8,17.4,17.4,17.5c0,0,0,0,0,0h951.2
	c9.6,0,17.4-7.8,17.4-17.5c0,0,0,0,0,0V166.2C1350.9,161.4,1347.1,157.6,1342.3,157.6L1342.3,157.6z"/>
<path fill="#FFFFFF" d="M1347,194.4v561.2c0,9.5-7.7,17.3-17.3,17.3H386.3c-9.5,0-17.3-7.7-17.3-17.3l0,0V194.4H1347z"/>
<path fill="#E4AF6C" d="M497.9,187.6v585.3H386.3c-9.5,0-17.3-7.7-17.3-17.3l0,0v-568L497.9,187.6z"/>
<path fill="#65617D" d="M1347,169.4v24.9H369v-24.9c0-4.7,3.8-8.6,8.6-8.6h960.9C1343.2,160.9,1347,164.7,1347,169.4
	C1347,169.4,1347,169.4,1347,169.4z"/>
<circle opacity="0.8" fill="#FA5959" enable-background="new    " cx="384.5" cy="177.4" r="4"/>
<circle opacity="0.8" fill="#FED253" enable-background="new    " cx="395.5" cy="177.4" r="4"/>
<circle opacity="0.8" fill="#8CCF4D" enable-background="new    " cx="406.5" cy="177.4" r="4"/>
<rect x="657.9" y="243.5" fill="#EDEDF4" width="94" height="10"/>
<rect x="657.9" y="272.5" fill="#EDEDF4" width="528" height="10"/>
<rect x="657.9" y="301.5" fill="#EDEDF4" width="528" height="10"/>
<rect x="657.9" y="330.5" fill="#EDEDF4" width="528" height="10"/>
<rect x="657.9" y="359.5" fill="#EDEDF4" width="528" height="10"/>
<rect x="381.9" y="243.5" fill="#EDEDF4" width="94" height="10"/>
<rect x="381.9" y="272.5" fill="#EDEDF4" width="94" height="10"/>
<rect x="381.9" y="301.5" fill="#EDEDF4" width="94" height="10"/>
<rect x="381.9" y="330.5" fill="#EDEDF4" width="94" height="10"/>
<rect x="381.9" y="359.5" fill="#EDEDF4" width="94" height="10"/>
<linearGradient id="SVGID_2_" gradientUnits="userSpaceOnUse" x1="1184.6899" y1="-624.1099" x2="1184.6899" y2="-618.1099" gradientTransform="matrix(6.123234e-017 1 1 -6.123234e-017 1533.04 -1040.14)">
	<stop  offset="0" style="stop-color:#808080;stop-opacity:0.25"/>
	<stop  offset="0.54" style="stop-color:#808080;stop-opacity:0.12"/>
	<stop  offset="1" style="stop-color:#808080;stop-opacity:0.1"/>
</linearGradient>
<rect x="908.9" y="142.5" fill="url(#SVGID_2_)" width="6" height="4"/>
<path fill="#3F3D56" d="M1199,672c-0.1-0.6-0.4-1.2-1-1.5c-1-0.4-2.1,0-2.5,1c0,0,0,0,0,0.1l-9.2,19.4l-2.1,76.3h3.3l1.2-76.1
	l10.1-17.9C1199,672.8,1199.1,672.4,1199,672z"/>
<linearGradient id="SVGID_3_" gradientUnits="userSpaceOnUse" x1="1281.6666" y1="-24.6419" x2="1281.6666" y2="175.4801" gradientTransform="matrix(1 0 0 -1 -16.24 768.58)">
	<stop  offset="0" style="stop-color:#808080;stop-opacity:0.25"/>
	<stop  offset="0.54" style="stop-color:#808080;stop-opacity:0.12"/>
	<stop  offset="1" style="stop-color:#808080;stop-opacity:0.1"/>
</linearGradient>
<path fill="url(#SVGID_3_)" d="M1338.8,790.8c0,0.1-0.1,0.1-0.2,0.2c-0.3,0.3-0.7,0.5-1.1,0.6l0,0c-0.8,0.2-1.7,0.4-2.6,0.4h-0.3
	c-0.5,0-1,0-1.5,0c-0.4,0-0.7-0.1-1.1-0.1l0,0c-0.5,0.1-1,0.2-1.6,0.4c-1.1,0.3-2.3,0.5-3.4,0.5h-0.4c-1.3,0-2.6,0-3.9,0h-0.6
	c-2.2,0-4.5,0.4-6.7,0.5h-0.7c-2.2,0-4.4-0.6-6.2-1.8c-0.3-0.2-0.6-0.6-0.8-0.9c-0.1-0.4-0.2-0.8-0.2-1.2c0-0.8,0.2-1.5,0.8-2.1
	c0.4-0.3,0.8-0.5,1.2-0.6l2.3-0.7l2.4-0.7l0.2,0l0.5-0.1l0.3-0.1c0.4-0.1,0.7-0.3,1-0.5c0.4-0.3,0.7-0.6,1-1c0-0.1,0.1-0.2,0.1-0.2
	v-0.2c-0.1-0.5-0.1-1-0.2-1.6c-1.2-0.3-2.2-0.9-3.1-1.7c-0.7-0.7-1.3-1.5-1.8-2.4c-0.9-2-1.7-4.1-2.3-6.2c-1.3-3.1-2.8-6.1-4.6-8.9
	c-1.6-2.7-3.2-5.3-5-7.8c-1.2-1.7-2.5-3.2-3.7-4.9c-3.4-4.6-5.8-9.9-7.1-15.5c-0.2-1.1-0.5-2.1-0.9-3.1c-0.7-1.7-2-3.2-3-4.8
	c-1.1-1.7-1.8-3.6-2.2-5.6c-0.2-1.1-0.6-2.4-1.7-2.5l0,0l-0.1,0.2c-2.3,4.6-4.8,9.2-8.3,12.9c-0.6,0.5-1.1,1.1-1.6,1.8
	c-0.4,0.6-0.7,1.3-1,1.9c-0.6,1.2-1.3,2.3-2.2,3.2c-0.3,0.3-0.6,0.5-0.9,0.7c-0.4,0.3-0.9,0.5-1.4,0.7l0,0c-0.2,0.1-0.4,0.1-0.6,0.1
	c0,0,0,0.1,0,0.1c0,0.1,0,0.1,0,0.2c0.6,3.3,0.3,6.7-0.8,9.9c0,0.1-0.1,0.2-0.1,0.3c-0.2,0.5-0.4,0.9-0.6,1.4
	c-0.5,1.1-1.1,2.2-1.6,3.3c-0.1,0.2-0.2,0.4-0.2,0.6c-1.7,4.4-1.3,9.4-1.5,14.2c0,1-0.1,2.1-0.4,3.1c-0.3,1.2-0.7,2.3-1,3.5
	c-0.2,0.9-0.2,1.8,0,2.7h-0.1c-0.5,0.2-0.9,0.3-1.3,0.5v0.1c0.2,0.9,0.3,1.9,0.5,2.8c0.1,0.8,0.4,1.6,0.9,2.2
	c0.1,0.1,0.3,0.3,0.4,0.4c0.3,0.5,0,1.2,0.1,1.8c0.1,0.9,0.9,1.6,0.8,2.5c-0.1,0.5-0.5,1-1,1.2c-0.2,0.1-0.4,0.2-0.6,0.2h-0.1
	l-0.8,0.1c-3.1,0.4-6.2,0.5-9.3,0.1c-0.6-0.1-1.2-0.2-1.8-0.3c-0.8,0-1.6,0-2.3,0.1c-5.7,0.5-11.4,0.6-17.1,0.3
	c-1.5-0.1-3.2-0.3-4-1.6c-0.5-1.1-0.5-2.4-0.1-3.6c0.1-0.4,0.3-0.9,0.5-1.3c0,0,0.1-0.1,0.1-0.1c0.8-0.9,2.2-1,3.4-1l4,0.1
	c0.4,0,0.8,0,1.2-0.1c0.6-0.3,1.2-0.6,1.8-1c0.8-0.4,1.7-0.4,2.3-1l0.1-0.1c0.1-0.1,0.2-0.3,0.3-0.4l0.1-0.1l0,0c0,0,0-0.1,0-0.1
	c0.5-0.7,1.4-0.9,2.1-1.3c0.1-0.1,0.2-0.1,0.3-0.2l0.1-0.1c-0.8-0.6-1.4-1.2-2-2c-0.2-0.2-0.4-0.5-0.5-0.8c0-0.2,0-0.5,0.1-0.7
	c0-0.1,0-0.1,0.1-0.2l0,0c0.3-0.6,0.9-1.1,1.2-1.6v0c0.5-0.9,0.5-2-0.1-2.8c0.3-5.5,1.8-10.8,2.2-16.2c0.1-2.2,0.1-4.3,0.2-6.5
	s0.3-4.3,0.6-6.4c0.6-4.9,1.9-9.7,1.7-14.6c0-0.5,0-0.9,0-1.4c0,0,0-0.1,0-0.1c0.1-1,0.4-2,0.9-2.9c0.6-1,1.3-2,2-2.9
	c2.6-3.3,5.6-6.6,6.5-10.7c0.6-2.1,1.4-4.1,2.5-5.9c0.5-1.2,1.3-2.2,2.2-3.1c0.5-0.4,1-0.8,1.5-1.3c0.7-0.9,0.7-2.1,1.1-3.1
	c0.2-0.5,0.5-1,0.7-1.6c0-0.1,0-0.1,0-0.2c0.1-0.6,0.1-1.1,0.1-1.7c0-0.2,0-0.3,0-0.5l0,0c0.2-1.6,0.7-3.2,1.4-4.7l0.3-0.6
	c-1.9-1.1-3.6-2.6-5-4.3c-0.5-0.6-0.9-1.2-1.2-1.8c-0.7-1.8-1.2-3.6-1.5-5.5c-1-4.4-3.2-8.6-3.5-13.1c0-1.4-0.1-2.8-0.5-4.1
	c-0.1-0.3-0.3-0.7-0.5-1c-0.1-0.1-0.2-0.3-0.2-0.4c0-0.1-0.1-0.1-0.1-0.2l-0.2-0.4l-0.3,0.3c-8.5,6.6-17.4,12.7-26.6,18.2l-0.8,0.5
	c-0.4,0.2-0.7,0.5-1,0.9l-0.1,0.2l0,0c-0.2,0.4-0.2,0.8-0.4,1.3c-0.4,0.9-1.3,1.6-2.3,1.8c-1.8,0.5-3.6,0.2-5.2-0.7
	c-0.2-0.1-0.4-0.2-0.6-0.3c-0.2,0.1-0.4,0.2-0.7,0.3c-0.3,0.1-0.6,0.2-0.9,0.3c-1.7,0.4-3.4,0.5-5.1,0.5c-1.7-0.1-3.4,0.1-5.1,0.6
	c-1,0.5-2.1,0.8-3.3,1h-0.4c-0.6-0.1-1.3-0.3-1.8-0.5l-0.3-0.2c-0.2-0.1-0.3-0.2-0.5-0.3c-0.2-0.1-0.3-0.2-0.5-0.4
	c-0.2-0.2-0.4-0.5-0.5-0.8c-0.1-0.2-0.1-0.4,0-0.7c0-0.1,0.1-0.2,0.1-0.3c0.1,0,0.2-0.1,0.2-0.1c0.5,0,1,0,1.4,0.1
	c0.3,0,0.6,0,0.8,0h0.2c0.5,0,1-0.3,1.3-0.7c0-0.1,0.1-0.1,0.1-0.2l0,0c0.1-0.1,0.1-0.2,0.1-0.4c0,0,0-0.1,0-0.1
	c-0.2-0.1-0.3-0.2-0.5-0.3l-0.3-0.2h0c-0.2-0.1-0.3-0.2-0.4-0.3c-0.1-0.1-0.2-0.2-0.2-0.3c-0.1-0.2-0.2-0.3-0.3-0.5l0,0
	c-0.3-0.1-0.7-0.1-1,0c-0.5,0.1-0.9,0.4-1.4,0.5c-0.2,0.1-0.5,0.1-0.7,0c-0.7-0.2-0.9-1-1-1.7c0-0.1,0-0.3-0.1-0.4l0,0
	c0-0.3,0-0.5,0-0.8c0.2-0.6,0.6-1.1,1.1-1.4l1.4-1.1l0.1-0.1c0-0.1,0-0.2-0.1-0.3c0-0.3,0-0.5,0-0.8c0.2-0.6,0.6-1.1,1.1-1.4l3-2.5
	c0.5-0.5,1.2-0.9,1.9-1c1.1-0.1,2,0.8,2.8,1.5c1,1,2.3,1.6,3.6,1.8c0.7,0,1.3-0.1,1.9-0.3l0.3-0.1c-0.1-0.2-0.2-0.3-0.2-0.5
	s-0.2-0.5-0.3-0.8c1.8-0.2,3.4-1,4.7-2.3c1.3-1.2,2.5-2.5,3.8-3.7c1.4-1.1,3.1-2.2,4.6-3.4c3.4-2.8,5.7-6.9,9.4-9.3
	c1.3-0.9,2.8-1.5,3.6-2.8c0.3-0.4,0.5-0.8,0.8-1.2c0.9-1.2,2.4-1.8,3.6-2.7c1.3-1,2.4-2.1,3.3-3.3c0.7-0.9,1.4-1.7,2.1-2.6
	c0.6-1.2,1.2-2.4,1.8-3.6c0.6-1,1.2-1.9,2-2.8c0.2-0.3,0.3-0.7,0.5-1c0.2-0.3,0.3-0.5,0.5-0.8c0.2-0.3,0.3-0.4,0.4-0.5
	c-0.4-0.7-0.7-1.3-0.9-1.5l-0.1-0.1c-0.4-0.4-0.8-0.8-1.2-1.1c-0.4-0.1-0.9-0.2-1.3-0.3c-5.3-1.4-8.9-6.2-8.9-11.7l0,0
	c0-1.9,0.5-3.8,1.3-5.5c0.2-0.3,0.4-0.7,0.6-1c-0.2-0.1-0.4-0.1-0.5-0.2c-0.3-0.1-0.6-0.4-0.8-0.6c-0.2-0.2-0.3-0.5-0.3-0.8
	c-0.1-0.7,0-1.4,0.3-2c0.1-0.3,0.2-0.6,0.4-0.9c0,0,0,0,0,0c1.9-3.7,5.6-6,9.8-6.2c4.3-0.2,8.4,1.8,11.8,4.7c1.1,0.8,2,1.7,2.9,2.7
	c1.7,2.6,2.6,5.6,2.8,8.6c0.1,1,0.1,1.9,0,2.9c0,0.3-0.1,0.7-0.2,1c-0.1,0.2-0.1,0.4-0.2,0.6c-0.1,0.1-0.1,0.3-0.2,0.4l0,0
	c-0.1,0.1-0.1,0.3-0.2,0.4v0l-0.1,0.1l0.1,0.2c0,0.1,0.1,0.1,0.1,0.2l0,0c0.8,0.1,1.6,0.2,2.4,0.3c0.4,0,0.8,0.1,1.2,0.2
	c0.8,0.3,1.5,0.8,2.2,1.3c1.7,1.2,3.8,1.8,5.5,3c2.5,1.9,3.8,4.9,5.2,7.7c2,3.7,5.2,6.8,6.7,10.8l2,5.3c1.2,3.5,2.6,7,4.3,10.3
	c2.4,4.6,5.7,8.7,7.6,13.5c0.2,0.5,0.5,0.9,1,1.1c2.6,3.7,5,7.6,7,11.7c1.1,2.1,2,4.4,2.4,6.8c0.2,2.1,0.1,4.3-0.5,6.3
	c-0.3,1.2-0.7,2.4-1.2,3.6c-0.2,0.4-0.3,0.8-0.4,1.3c0,0,0,0.1,0,0.1c0,0.8,0.1,1.6,0.3,2.4c0.1,0.6,0,1.3-0.2,1.9
	c0,0.1-0.1,0.2-0.1,0.3c-0.3,0.5-0.5,1-0.7,1.5v0.2c0,0.9,0.1,1.8,0.4,2.7c0.6,3.3,0.7,6.6,0.4,9.9c-0.1,1.7,1.2,3,2.4,4.2
	c2,2.4,3.8,4.9,5.3,7.6c0.9,1.4,1.6,2.8,2.2,4.3c0.5,1.7,0.9,3.5,1.2,5.3c1.1,5.5,4.5,10.3,5.4,15.8c0.4,2.5,1.5,4.9,3.2,6.8
	c0.5,0.5,1,1.1,1.4,1.7c0.3,0.5,0.5,1,0.7,1.5c0.4,1.2,0.6,2.5,0.6,3.8c-0.1,0.6,0,1.2,0.1,1.8c0.4,1.3,1.8,2,2.4,3.2
	s0.2,2.7,0.4,4.1c0.2,1.1,0.8,2.1,1.6,2.8c-0.3,0.3-0.7,0.6-1,0.8c0.3,0.3,0.6,0.6,0.9,0.9c0.2,0.2,0.3,0.5,0.4,0.7
	c0.6,1.3,0.6,2.8,1,4.1c0.3,0.5,0.4,1.1,0.3,1.7c-0.1,0.2-0.1,0.3-0.1,0.5c0,0.4,0.4,0.6,0.5,1
	C1339.1,790.1,1339,790.5,1338.8,790.8z"/>
<path fill="#FBBEBE" d="M1251,629.2c2.5-0.8,4.9-2,7-3.5l7.7-4.9c-2.1-0.3-4-1.6-5-3.5c-1-1.9-1.6-3.9-1.9-6
	c-3.3,1.4-6.3,3.4-8.9,5.8c-1.1,0.9-3.3,2.3-3.7,3.7c-0.3,1.4,1.8,2.6,2.6,3.5C1249.2,624.7,1251.8,628.9,1251,629.2z"/>
<path opacity="0.1" enable-background="new    " d="M1251,629.2c2.5-0.8,4.9-2,7-3.5l7.7-4.9c-2.1-0.3-4-1.6-5-3.5
	c-1-1.9-1.6-3.9-1.9-6c-3.3,1.4-6.3,3.4-8.9,5.8c-1.1,0.9-3.3,2.3-3.7,3.7c-0.3,1.4,1.8,2.6,2.6,3.5
	C1249.2,624.7,1251.8,628.9,1251,629.2z"/>
<path fill="#FBBEBE" d="M1208.9,669.7c-1.3,0.8-2.8,1.3-4.3,1.3c-1.4-0.2-2.6-0.8-3.6-1.7c-0.8-0.7-1.7-1.6-2.8-1.5
	c-0.7,0.1-1.4,0.5-1.9,1l-3,2.5c-0.9,0.5-1.4,1.6-1,2.6c0.1,0.7,0.4,1.5,1,1.7s1.3-0.3,2-0.5c0.9-0.2,1.8,0,2.3,0.7
	c0.2,0.2,0.4,0.6,0.4,0.9c0,0.8-0.8,1.2-1.6,1.3s-1.5-0.2-2.3-0.2c-0.1,0-0.2,0-0.2,0.1c-0.1,0.1-0.1,0.1-0.1,0.2
	c-0.1,0.5,0.1,1.1,0.5,1.5c0.4,0.4,0.9,0.6,1.3,0.8c0.6,0.3,1.2,0.5,1.8,0.5c1.3,0.1,2.4-0.6,3.7-1c1.7-0.5,3.4-0.6,5.1-0.6
	c1.7,0.1,3.4-0.1,5.1-0.5c1.7-0.4,3.1-1.6,3.9-3.1c0.1-0.1,0.1-0.3,0.1-0.5c-0.1-0.2-0.2-0.3-0.3-0.4c-2.3-1.7-3.3-3.8-5.8-5
	L1208.9,669.7z"/>
<path opacity="0.1" enable-background="new    " d="M1208.9,669.7c-1.3,0.8-2.8,1.3-4.3,1.3c-1.4-0.2-2.6-0.8-3.6-1.7
	c-0.8-0.7-1.7-1.6-2.8-1.5c-0.7,0.1-1.4,0.5-1.9,1l-3,2.5c-0.9,0.5-1.4,1.6-1,2.6c0.1,0.7,0.4,1.5,1,1.7s1.3-0.3,2-0.5
	c0.9-0.2,1.8,0,2.3,0.7c0.2,0.2,0.4,0.6,0.4,0.9c0,0.8-0.8,1.2-1.6,1.3s-1.5-0.2-2.3-0.2c-0.1,0-0.2,0-0.2,0.1
	c-0.1,0.1-0.1,0.1-0.1,0.2c-0.1,0.5,0.1,1.1,0.5,1.5c0.4,0.4,0.9,0.6,1.3,0.8c0.6,0.3,1.2,0.5,1.8,0.5c1.3,0.1,2.4-0.6,3.7-1
	c1.7-0.5,3.4-0.6,5.1-0.6c1.7,0.1,3.4-0.1,5.1-0.5c1.7-0.4,3.1-1.6,3.9-3.1c0.1-0.1,0.1-0.3,0.1-0.5c-0.1-0.2-0.2-0.3-0.3-0.4
	c-2.3-1.7-3.3-3.8-5.8-5L1208.9,669.7z"/>
<path fill="#3F3D56" d="M1257.4,625.5c-1.3-0.8-2.9-1-4.4-0.5c-1.4,0.5-2.7,1.4-3.8,2.5c-1,1.1-1.9,2.2-2.7,3.5
	c-0.7,1.2-1.3,2.5-1.9,3.8c-1.3,2.2-2.8,4.2-4.5,6.1c-1,1.3-2.1,2.4-3.3,3.3c-1.2,0.9-2.8,1.4-3.6,2.7c-0.3,0.4-0.5,0.8-0.8,1.2
	c-0.9,1.3-2.3,1.9-3.6,2.8c-3.7,2.5-6,6.5-9.4,9.3c-1.5,1.2-3.2,2.1-4.6,3.3s-2.5,2.5-3.8,3.6c-1.3,1.2-2.9,2-4.7,2.2
	c1.1,2.7,2.6,5.1,4.6,7.2c2,2,5,3.3,7.8,2.5c1-0.2,1.9-0.9,2.3-1.8c0.1-0.5,0.3-1,0.5-1.4c0.3-0.4,0.6-0.7,1-0.8
	c11.1-6.5,21.6-13.8,31.5-21.9c2.7-2.2,5.3-4.1,8-6.2c1-0.7,1.9-1.5,2.7-2.4c2.3-2.8,2.8-6.7,1.1-9.9c-0.7-1.2-1.6-2.4-2.5-3.4
	C1261.6,629.2,1259.6,627.2,1257.4,625.5z"/>
<path opacity="0.1" enable-background="new    " d="M1257.4,625.5c-1.3-0.8-2.9-1-4.4-0.5c-1.4,0.5-2.7,1.4-3.8,2.5
	c-1,1.1-1.9,2.2-2.7,3.5c-0.7,1.2-1.3,2.5-1.9,3.8c-1.3,2.2-2.8,4.2-4.5,6.1c-1,1.3-2.1,2.4-3.3,3.3c-1.2,0.9-2.8,1.4-3.6,2.7
	c-0.3,0.4-0.5,0.8-0.8,1.2c-0.9,1.3-2.3,1.9-3.6,2.8c-3.7,2.5-6,6.5-9.4,9.3c-1.5,1.2-3.2,2.1-4.6,3.3s-2.5,2.5-3.8,3.6
	c-1.3,1.2-2.9,2-4.7,2.2c1.1,2.7,2.6,5.1,4.6,7.2c2,2,5,3.3,7.8,2.5c1-0.2,1.9-0.9,2.3-1.8c0.1-0.5,0.3-1,0.5-1.4
	c0.3-0.4,0.6-0.7,1-0.8c11.1-6.5,21.6-13.8,31.5-21.9c2.7-2.2,5.3-4.1,8-6.2c1-0.7,1.9-1.5,2.7-2.4c2.3-2.8,2.8-6.7,1.1-9.9
	c-0.7-1.2-1.6-2.4-2.5-3.4C1261.6,629.2,1259.6,627.2,1257.4,625.5z"/>
<path fill="#3F3D56" d="M1239.6,779.3c-0.8,0.3-1.5,0.8-2.1,1.3c-0.2,0.2-0.3,0.5-0.5,0.7c-0.6,0.7-1.5,0.7-2.3,1
	c-0.6,0.4-1.2,0.7-1.8,1c-0.4,0.1-0.8,0.1-1.2,0.1l-4-0.1c-1.3,0-2.8,0-3.5,1.1c-0.2,0.4-0.4,0.8-0.5,1.3c-0.5,1.2-0.4,2.4,0.1,3.6
	c0.8,1.3,2.5,1.5,4,1.6c5.7,0.3,11.3,0.2,17-0.3c0.8-0.1,1.5-0.1,2.3-0.1c0.6,0.1,1.2,0.2,1.8,0.3c3.1,0.4,6.2,0.3,9.3-0.1
	c0.5,0,1-0.1,1.5-0.3c0.5-0.2,0.9-0.6,1-1.1c0.1-0.9-0.7-1.6-0.8-2.4c-0.1-0.6,0.2-1.3-0.1-1.8c-0.1-0.2-0.3-0.3-0.4-0.4
	c-0.5-0.6-0.8-1.4-0.8-2.2l-0.8-4.3c0-0.3-0.1-0.6-0.3-0.8c-0.2-0.1-0.3-0.2-0.5-0.2c-3.2-0.7-6.4-0.1-9.5,0.3
	c-1.6,0.2-3.2,0.3-4.9,0.2c-0.7,0-1-0.1-1.5,0.3S1240.2,778.9,1239.6,779.3z"/>
<path fill="#3F3D56" d="M1315.8,784.4c-0.6,0.3-1.1,0.5-1.8,0.7c-1.6,0.5-3.3,1-4.9,1.5c-0.4,0.1-0.8,0.3-1.2,0.6
	c-0.5,0.6-0.8,1.3-0.8,2c0,0.4,0,0.8,0.2,1.2c0.2,0.4,0.5,0.7,0.8,0.9c1.9,1.3,4.3,2,6.6,1.8c2.3,0,4.6-0.4,7-0.5
	c2.8-0.1,5.7,0.3,8.4-0.5c0.5-0.2,1.1-0.3,1.6-0.4c0.4,0,0.7,0,1.1,0.1c1.4,0.1,2.9,0,4.3-0.4c0.4-0.1,0.8-0.3,1.2-0.6
	c0.3-0.3,0.5-0.8,0.3-1.2c-0.2-0.3-0.5-0.6-0.5-1c0-0.2,0.1-0.3,0.1-0.5c0.1-0.6,0-1.2-0.3-1.7c-0.5-1.6-0.4-3.4-1.4-4.8
	c-1.1-1.3-2.7-2.1-4.4-2.2c-1.4-0.2-2.7-0.1-4.1,0.1c-1.5,0.3-2.9,1-4.4,1.4c-1.7,0.5-3.5,0.7-5.3,0.5c-1.2-0.1-0.8,0.1-1.2,1.1
	C1317,783.4,1316.5,784,1315.8,784.4z"/>
<circle fill="#FBBEBE" cx="1249.6" cy="611.4" r="12"/>
<path fill="#3F3D56" d="M1336.8,780.1c-3.7,3.2-8.8,4.6-13.7,4.7c-2.1,0.1-4.2-0.3-6-1.3c-0.1-0.7-0.2-1.4-0.3-2.1
	c-2.1-0.6-3.9-2.1-4.8-4.1c-0.9-2-1.7-4-2.3-6.1c-1.3-3.1-2.8-6-4.6-8.8c-1.6-2.6-3.2-5.3-5-7.7c-1.2-1.7-2.5-3.2-3.7-4.9
	c-3.4-4.6-5.8-9.8-7.1-15.4c-0.2-1.1-0.5-2.1-0.9-3.1c-0.9-1.7-1.9-3.2-3-4.7c-1.1-1.7-1.8-3.6-2.2-5.6c-0.2-1.1-0.6-2.3-1.7-2.5
	l0,0c-2.4,4.6-4.8,9.3-8.4,13.1c-0.6,0.5-1.1,1.1-1.5,1.8c-0.4,0.6-0.7,1.3-1,1.9c-0.6,1.2-1.3,2.3-2.2,3.2
	c-0.8,0.8-1.7,1.3-2.8,1.5c0.8,4,0.3,8.1-1.4,11.8c-0.5,1.1-1.1,2.1-1.6,3.3c-1.9,4.5-1.5,9.7-1.7,14.6c0,1-0.1,2.1-0.4,3.1
	c-0.5,2-1.5,4.2-1,6.2c-5.2,2-11,1.9-16.5,1c-1.1-0.1-2.1-0.4-3.1-0.9c-0.8-0.6-1.4-1.2-2-2c-0.2-0.2-0.4-0.5-0.5-0.8
	c-0.2-1,0.8-1.6,1.3-2.5c0.5-0.9,0.5-2-0.1-2.8c0.3-5.4,1.8-10.7,2.2-16.2c0.1-2.2,0.1-4.3,0.2-6.5s0.3-4.3,0.6-6.4
	c0.6-4.8,1.9-9.6,1.7-14.5c-0.1-1.5,0.3-3,1-4.3c0.6-1,1.3-2,2-2.8c2.5-3.3,5.6-6.6,6.5-10.6c0.6-2.1,1.4-4.1,2.5-5.9
	c0.5-1.2,1.3-2.2,2.2-3.1c0.5-0.4,1-0.8,1.5-1.3c0.7-0.9,0.7-2.1,1.1-3.1c0.2-0.5,0.5-1,0.7-1.6c0.1-0.6,0.2-1.2,0.2-1.9
	c0.2-2,0.8-4,1.7-5.8c-1.9-1.1-3.6-2.6-5-4.3c-0.5-0.6-0.9-1.2-1.2-1.8c-0.7-1.7-1.2-3.6-1.5-5.4c-1-4.4-3.2-8.5-3.5-13
	c0-1.4-0.1-2.8-0.5-4.1c-0.2-0.5-0.5-1.1-0.8-1.6c-0.3-0.5-0.5-1-0.7-1.6c-0.3-1.2,0.1-2.5,0-3.7c-0.2-1.1-0.5-2.2-0.8-3.2
	c-0.2-1.4-0.3-2.8-0.1-4.2c0.2-1.7,0.3-3.3,0.3-5c-0.4-5.5,1.5-10.9,5.3-14.9l0.1-0.1c0.8-0.8,1.7-1.6,2.4-2.4
	c1-1.2,1.7-2.6,2.7-3.7c0.5-0.5,1-1,1.4-1.5c0.4-0.5,0.9-1,1.3-1.5c0.5-0.5,1.2-0.7,1.9-0.5c0.1,0.6,0.3,1.2,0.6,1.8
	c0.9,0.1,1.6,0.2,2.5,0.3c0.4,0,0.8,0.1,1.2,0.2c0.8,0.3,1.5,0.8,2.2,1.3c1.7,1.2,3.8,1.8,5.5,3c2.5,1.8,3.8,4.9,5.2,7.6
	c2,3.7,5.2,6.8,6.7,10.7c0.7,1.8,1.3,3.6,1.9,5.3c1.2,3.5,2.6,6.9,4.3,10.2c2.4,4.5,5.7,8.7,7.6,13.4c0.2,0.5,0.5,0.9,1,1.1
	c2.6,3.7,5,7.6,7,11.6c1.1,2.1,2,4.4,2.4,6.7c0.5,3.3-0.5,6.7-1.7,9.8c-0.2,0.4-0.4,0.9-0.4,1.4c0,0.8,0.1,1.6,0.3,2.4
	c0.1,0.7,0,1.5-0.3,2.2c-0.3,0.5-0.5,1-0.7,1.5c-0.1,1,0,2,0.4,2.9c0.6,3.3,0.7,6.6,0.4,9.9c-0.1,1.6,1.3,3,2.4,4.2
	c2,2.3,3.8,4.9,5.3,7.6c0.8,1.3,1.6,2.8,2.1,4.3c0.5,1.7,0.9,3.5,1.2,5.3c1,5.4,4.5,10.2,5.4,15.7c0.4,2.5,1.5,4.8,3.2,6.7
	c0.5,0.5,1,1.1,1.4,1.7c0.3,0.5,0.5,1,0.7,1.5c0.4,1.2,0.6,2.5,0.6,3.8c-0.1,0.6,0,1.2,0.1,1.8c0.4,1.3,1.8,2,2.3,3.2
	s0.2,2.7,0.4,4.1C1335.3,778.4,1335.9,779.4,1336.8,780.1z"/>
<path fill="#FBBEBE" d="M1211.3,666c-1.3,0.8-2.8,1.3-4.3,1.3c-1.4-0.2-2.7-0.8-3.6-1.7c-0.8-0.7-1.7-1.6-2.8-1.5
	c-0.7,0.1-1.4,0.5-1.9,1l-3,2.5c-0.5,0.3-0.9,0.8-1.1,1.4c-0.1,0.4,0,0.8,0.1,1.2c0.1,0.7,0.4,1.5,1,1.7s1.3-0.3,2-0.5
	c0.9-0.2,1.8,0,2.3,0.7c0.2,0.2,0.4,0.6,0.4,0.9c0,0.8-0.8,1.3-1.6,1.3s-1.5-0.2-2.2-0.2c-0.1,0-0.2,0-0.3,0.1
	c-0.1,0.1-0.1,0.1-0.1,0.2c-0.1,0.6,0.1,1.1,0.5,1.5c0.4,0.4,0.9,0.6,1.4,0.8c0.6,0.3,1.2,0.5,1.8,0.5c1.3,0.1,2.5-0.6,3.7-1
	c1.7-0.5,3.4-0.7,5.1-0.6c1.7,0.1,3.4-0.1,5.1-0.5c1.7-0.4,3.1-1.6,3.8-3.1c0.1-0.1,0.1-0.3,0.1-0.5c-0.1-0.2-0.2-0.3-0.3-0.4
	c-2.3-1.7-3.3-3.8-5.9-5L1211.3,666z"/>
<path fill="#3F3D56" d="M1243.8,604c-0.7,0.2-1.4,0.5-2,0.9c-0.9,0.4-2,0.3-2.8-0.2c-0.3-0.1-0.6-0.4-0.8-0.6
	c-0.5-0.9-0.5-1.9,0-2.8c1.7-4.2,5.7-6.9,10.2-7.1c4.3-0.2,8.4,1.8,11.7,4.7c1,0.8,1.9,1.8,2.7,2.8c1.7,2.6,2.6,5.5,2.8,8.6
	c0.1,1.3,0,2.6-0.3,3.8c-0.3,1.2-1.1,2.3-2.2,2.9c-1.2,0.5-2.6,0.5-3.8-0.2c-1.2-0.6-2.3-1.4-3.3-2.4c-0.5-0.4-1-0.8-1.6-1
	c-0.6-0.2-1.3-0.1-1.8,0.4c-0.6,0.7-0.4,1.8-0.9,2.5c-0.6,0.7-1.5,1-2.4,0.8c-0.9,0.1-1.7-0.2-2.3-0.8c-0.4-0.7-0.5-1.6-0.2-2.4
	c0.3-0.8,0.4-1.6,0.4-2.4c-0.2-1.6-1.6-2.7-2.1-4.2c-0.3-1,0.4-1.4,0.3-2.3c-0.1-0.7-0.7-1.2-1.5-1.1
	C1243.8,604,1243.8,604,1243.8,604z"/>
<path opacity="0.1" enable-background="new    " d="M1281.5,718.3L1281.5,718.3L1281.5,718.3c-2.4,4.7-4.8,9.4-8.4,13.2
	c-0.6,0.5-1.1,1.1-1.6,1.8c-0.4,0.6-0.7,1.3-1,1.9c-0.6,1.2-1.3,2.3-2.2,3.2l-3,1.5l9.5-49.7L1281.5,718.3z"/>
<path opacity="0.1" enable-background="new    " d="M1267.7,643c-0.8,0.9-1.7,1.7-2.7,2.4c-2.7,2.1-5.4,4-8,6.2
	c-2.2,1.8-4.3,3.5-6.5,5.1c-0.3-0.5-0.5-1-0.7-1.6c-0.3-1.2,0.1-2.5,0-3.7c-0.2-1.1-0.5-2.2-0.8-3.2c-0.2-1.4-0.3-2.8-0.1-4.2
	c0.2-1.7,0.3-3.3,0.3-5c-0.4-5.5,1.5-10.9,5.3-14.9l0.1-0.1c0.4-0.3,0.9-0.5,1.4-0.6c1.5-0.5,3.1-0.3,4.4,0.5c2.3,1.7,4.3,3.6,6,5.9
	c0.9,1.1,1.8,2.2,2.5,3.4C1270.5,636.4,1270,640.3,1267.7,643z"/>
<path fill="#3F3D56" d="M1259.9,621.8c-1.3-0.8-2.9-1-4.4-0.5c-1.4,0.5-2.7,1.4-3.8,2.5c-1,1.1-1.9,2.2-2.7,3.5
	c-0.7,1.2-1.3,2.5-1.9,3.8c-1.3,2.2-2.8,4.2-4.5,6.1c-1,1.3-2.1,2.4-3.3,3.3c-1.3,0.9-2.8,1.4-3.6,2.7c-0.3,0.4-0.5,0.8-0.8,1.2
	c-0.9,1.3-2.3,1.9-3.6,2.8c-3.7,2.5-6,6.5-9.4,9.3c-1.5,1.2-3.2,2.1-4.6,3.3s-2.5,2.5-3.8,3.6c-1.3,1.2-2.9,2-4.7,2.2
	c1.1,2.7,2.6,5.1,4.6,7.2c2,2,5,3.3,7.8,2.5c1-0.2,1.9-0.9,2.3-1.8c0.1-0.5,0.3-1,0.5-1.4c0.3-0.4,0.6-0.7,1-0.8
	c11.1-6.5,21.6-13.8,31.5-21.9c2.7-2.2,5.3-4.1,8-6.2c1-0.7,1.9-1.5,2.7-2.4c2.3-2.8,2.8-6.7,1.1-9.9c-0.7-1.2-1.6-2.3-2.5-3.4
	C1264.1,625.4,1262.1,623.5,1259.9,621.8z"/>
<g opacity="0.1">
	<path d="M1250.1,615.5c-0.9,0.1-1.7-0.2-2.3-0.8c-0.4-0.7-0.5-1.6-0.2-2.4c0.3-0.8,0.4-1.6,0.4-2.4c-0.2-1.7-1.6-2.7-2.1-4.2
		c-0.3-1,0.4-1.4,0.3-2.3c-0.1-0.7-0.8-1.2-1.5-1.1c0,0,0,0,0,0c-0.7,0.2-1.4,0.5-2,0.9c-0.9,0.4-2,0.3-2.8-0.2
		c-0.3-0.2-0.6-0.4-0.8-0.6c-0.5-0.9-0.5-1.9,0-2.8v-0.1c-0.3,0.6-0.6,1.1-0.9,1.8c-0.5,0.9-0.5,1.9,0,2.8c0.2,0.3,0.5,0.5,0.8,0.6
		c0.9,0.5,1.9,0.5,2.9,0.1c0.6-0.4,1.3-0.7,2-0.9c0.7-0.1,1.4,0.3,1.5,1c0,0,0,0,0,0.1c0.1,0.9-0.6,1.3-0.3,2.3
		c0.4,1.5,1.9,2.6,2.1,4.2c0,0.8-0.1,1.6-0.4,2.4c-0.3,0.8-0.2,1.6,0.2,2.4c0.6,0.6,1.5,0.9,2.3,0.8c0.9,0.1,1.8-0.2,2.4-0.8
		c0.2-0.4,0.4-0.8,0.4-1.3C1251.5,615.4,1250.8,615.6,1250.1,615.5z"/>
	<path d="M1263.9,615.4c-1.2,0.5-2.6,0.5-3.8-0.2c-1.2-0.6-2.3-1.4-3.3-2.4c-0.5-0.4-1-0.8-1.6-1c-0.6-0.2-1.3-0.1-1.8,0.4
		c-0.3,0.4-0.5,0.9-0.5,1.4c0.4-0.3,1-0.3,1.4-0.2c0.6,0.2,1.1,0.6,1.6,1c1,0.9,2.1,1.7,3.3,2.4c1.2,0.6,2.6,0.7,3.8,0.2
		c1.1-0.6,1.8-1.6,2.1-2.8C1264.8,614.7,1264.4,615.1,1263.9,615.4z"/>
</g>
<circle fill="#3F3D56" cx="1160.7" cy="781.1" r="12.4"/>
<circle opacity="0.1" enable-background="new    " cx="1160.7" cy="781.1" r="12.4"/>
<circle fill="#65617D" cx="1160.7" cy="781.1" r="7.9"/>
<circle opacity="0.1" enable-background="new    " cx="1160.7" cy="781.1" r="7.9"/>
<path fill="#3F3D56" d="M1151.2,761.6l8.2,18.4c0.3,0.8,1.3,1.2,2.1,0.8c0.3-0.2,0.6-0.4,0.8-0.8l9.7-19.8L1151.2,761.6z"/>
<path opacity="0.1" enable-background="new    " d="M1151.2,761.6l8.2,18.4c0.3,0.8,1.3,1.2,2.1,0.8c0.3-0.2,0.6-0.4,0.8-0.8
	l9.7-19.8L1151.2,761.6z"/>
<circle fill="#3F3D56" cx="1083.2" cy="781.1" r="12.4"/>
<circle opacity="0.1" enable-background="new    " cx="1083.2" cy="781.1" r="12.4"/>
<circle fill="#65617D" cx="1083.2" cy="781.1" r="7.9"/>
<circle opacity="0.1" enable-background="new    " cx="1083.2" cy="781.1" r="7.9"/>
<path fill="#3F3D56" d="M1073.7,761.6l8.2,18.4c0.3,0.8,1.3,1.2,2.1,0.8c0.3-0.2,0.6-0.4,0.8-0.8l9.7-19.8L1073.7,761.6z"/>
<path opacity="0.1" enable-background="new    " d="M1073.7,761.6l8.2,18.4c0.3,0.8,1.3,1.2,2.1,0.8c0.3-0.2,0.6-0.4,0.8-0.8
	l9.7-19.8L1073.7,761.6z"/>
<path fill="#3F3D56" d="M1201.1,672.9c-0.1-0.6-0.4-1.2-1-1.5c-1-0.4-2.1,0-2.5,1c0,0,0,0,0,0.1l-7.1,17.7l-2.1,79.6h3.3l1.2-79.4
	l8.1-16.3C1201.1,673.7,1201.2,673.3,1201.1,672.9z"/>
<polygon fill="#E5C699" points="1054.4,763.5 1065.6,756.5 1186.4,755.4 1189.5,763.5 "/>
<polygon fill="#3F3D56" points="1054.4,771 1054.4,763.5 1191.7,762.2 1191.6,767.2 1056.9,767.2 1056.9,771 "/>
<circle fill="#3F3D56" cx="1071.8" cy="785.5" r="12.4"/>
<circle fill="#65617D" cx="1071.8" cy="785.5" r="7.9"/>
<path fill="#3F3D56" d="M1062.3,766l8.2,18.4c0.3,0.8,1.3,1.2,2.1,0.8c0.3-0.2,0.6-0.4,0.8-0.8l9.7-19.7L1062.3,766z"/>
<circle fill="#3F3D56" cx="1168.4" cy="785.5" r="12.4"/>
<circle fill="#65617D" cx="1168.4" cy="785.5" r="7.9"/>
<path fill="#3F3D56" d="M1158.9,766l8.2,18.4c0.3,0.8,1.3,1.2,2.1,0.8c0.3-0.2,0.6-0.4,0.8-0.8l9.7-19.7L1158.9,766z"/>
<rect x="1073.9" y="677.5" fill="#EDEDF4" width="82" height="82"/>
<path fill="#FF5722" d="M1090.6,713.3h13.9v20.8h-13.9V713.3z M1108,702.9h13.9v31.3H1108V702.9z M1125.3,720.3h13.9v13.9h-13.9
	V720.3z"/>
<rect x="1087.9" y="595.5" fill="#D7D9E1" width="82" height="82"/>
<path fill="#58585A" d="M1115,653.9h27.8v5.2H1115V653.9z M1128.9,640c1.9-0.1,3.4-1.7,3.3-3.7c-0.1-1.8-1.5-3.2-3.3-3.3
	c-0.3,0-0.7,0-1,0.1l-7.2-5.3l-0.4,0.4l5.3,7.2c-0.1,0.3-0.2,0.7-0.2,1C1125.5,638.5,1127,640,1128.9,640L1128.9,640z"/>
<path fill="#58585A" d="M1128.9,614c-12.5,0-22.6,10.1-22.6,22.6c0,5,1.7,9.9,4.8,13.9h6.4l0.4-0.4l2.4-2.4l-2.5-2.5l-2.4,2.4
	c-2.2-2.6-3.5-5.8-3.8-9.2h3.4v-3.4h-3.4c0.3-3.4,1.7-6.6,3.8-9.2l2.4,2.4l2.5-2.5l-2.4-2.4c2.6-2.2,5.8-3.5,9.2-3.8v3.4h3.5v-3.4
	c3.4,0.3,6.6,1.7,9.2,3.8l-2.4,2.4l2.5,2.5l2.4-2.4c2.2,2.6,3.5,5.8,3.8,9.2h-3.4v3.5h3.4c-0.3,3.4-1.7,6.6-3.8,9.2l-2.4-2.4
	l-2.5,2.5l2.4,2.4l0.4,0.4h6.4c7.7-9.8,5.9-24-3.9-31.7C1138.9,615.7,1134,614,1128.9,614L1128.9,614z"/>
<rect x="659.9" y="406.5" opacity="0.1" enable-background="new    " width="82" height="82"/>
<rect x="657.9" y="404.5" fill="#EDEDF4" width="82" height="82"/>
<path fill="#FED253" d="M690.2,424.7h7v41.7h-7V424.7z M679.8,454.2h6.9v12.2h-7L679.8,454.2z M700.7,447.3h7v19.1h-7V447.3z
	 M711.1,436.9h7v29.5h-7V436.9z"/>
<rect x="1103.9" y="405.5" opacity="0.1" enable-background="new    " width="82" height="82"/>
<rect x="1101.9" y="403.5" fill="#EDEDF4" width="82" height="82"/>
<path fill="#3F3D56" d="M1156.3,436.1l-9.5,14.5c0.8,0.9,1.2,2.1,1.2,3.3c0,2.9-2.3,5.2-5.2,5.2c-2.9,0-5.2-2.3-5.2-5.2
	c0-0.3,0-0.7,0.1-1l-6.3-3.6c-1.7,1.6-4.2,1.9-6.2,0.8l-6.7,6.2v6.2c0,2.6,2.1,4.6,4.6,4.6h39.4c2.6,0,4.6-2.1,4.6-4.6v-23l-6.4-4.2
	C1159.6,436.2,1157.9,436.5,1156.3,436.1L1156.3,436.1z"/>
<path fill="#8CCF4D" d="M1127.8,440.3c2.9,0,5.2,2.3,5.2,5.2l0,0c0,0.2,0,0.5,0,0.7l6.5,3.7c0.9-0.8,2.1-1.2,3.3-1.2
	c0.4,0,0.8,0,1.1,0.1l9.5-14.7c-0.6-0.9-1-1.9-1-3c0-2.9,2.3-5.2,5.2-5.2c2.9,0,5.2,2.3,5.2,5.2c0,0.4,0,0.8-0.1,1.2l4.5,3v-8.7
	c0-2.6-2.1-4.6-4.6-4.6h-39.4c-2.6,0-4.6,2.1-4.6,4.6v24.9l4.3-4.2c-1-2.7,0.4-5.7,3.1-6.7C1126.6,440.5,1127.2,440.4,1127.8,440.3
	L1127.8,440.3z"/>
<rect x="881.9" y="409.5" opacity="0.1" enable-background="new    " width="82" height="82"/>
<rect x="879.9" y="407.5" fill="#EDEDF4" width="82" height="82"/>
<path fill="#FA5959" d="M907,465.9h27.8v5.2H907V465.9z M920.9,452c1.9,0,3.5-1.6,3.5-3.5s-1.6-3.5-3.5-3.5c-0.3,0-0.7,0-1,0.1
	l-7.2-5.2l-0.4,0.4l5.3,7.2c-0.1,0.3-0.2,0.7-0.2,1C917.5,450.5,919,452,920.9,452L920.9,452z"/>
<path fill="#FA5959" d="M920.9,426c-12.5,0-22.6,10.1-22.6,22.6c0,5,1.7,9.9,4.8,13.9h6.4l0.4-0.4l2.4-2.4l-2.5-2.5l-2.4,2.4
	c-2.2-2.6-3.5-5.8-3.8-9.2h3.4v-3.4h-3.4c0.3-3.4,1.7-6.6,3.8-9.2l2.4,2.4l2.5-2.5l-2.4-2.4c2.6-2.2,5.8-3.5,9.2-3.8v3.4h3.5v-3.4
	c3.4,0.3,6.6,1.7,9.2,3.8l-2.4,2.4l2.5,2.5l2.4-2.4c2.2,2.6,3.5,5.8,3.8,9.2h-3.4v3.5h3.4c-0.3,3.4-1.7,6.6-3.8,9.2l-2.4-2.4
	l-2.5,2.5l2.4,2.4l0.4,0.4h6.4c7.7-9.8,5.9-24-3.9-31.7C930.9,427.7,926,426,920.9,426L920.9,426z"/>
<rect x="847.9" y="538.5" opacity="0.1" enable-background="new    " width="82" height="82"/>
<rect x="840.9" y="532.5" fill="#EDEDF4" width="82" height="82"/>
<path fill="#03DCC7" d="M891.7,559l5.6,5.6l-11.9,11.9l-9.7-9.7l-18,18l3.4,3.4l14.6-14.6l9.7,9.7l15.3-15.3l5.6,5.6V559H891.7z"/>
<linearGradient id="SVGID_4_" gradientUnits="userSpaceOnUse" x1="1213.3525" y1="-26.6908" x2="1213.3525" y2="194.0945" gradientTransform="matrix(-1 0 0 -1 2092.76 768.58)">
	<stop  offset="0" style="stop-color:#808080;stop-opacity:0.25"/>
	<stop  offset="0.54" style="stop-color:#808080;stop-opacity:0.12"/>
	<stop  offset="1" style="stop-color:#808080;stop-opacity:0.1"/>
</linearGradient>
<path fill="url(#SVGID_4_)" d="M827.5,790.9c0.6-2.5,1-4.7,1-4.7c-0.1-1.7,0.3-3.3,1.1-4.8v-0.7l0,0v-5.1c-0.3-0.9-0.8-1.8-1.3-2.7
	c-0.9-1.6,0-7.4,0-7.4s3.4-8.2,2.5-13.4s6.9-23.2,6.9-23.2c0-1.7-0.3-3.4-0.7-5.1c-0.1-0.4-0.1-0.7-0.1-1.1c0,0,0-0.1,0-0.1l0,0
	c0.1-3.4,2.8-9.9,2.8-9.9l-0.4-12.3c0,0-1.7-7.3,1.1-17c1-3.4,1.6-6.1,2-8.2c0-0.2,0.1-0.5,0.1-0.7c-5.8-0.9-10.3-1.6-10.3-1.6
	s3.4-14.1,5.7-16.6s4.1-10.3,4.1-10.3s1.2-10-0.7-12.9s-2.2-8-2.2-8s-4.4-3.2-4.9-4.6c-0.8-2-1.3-4.1-1.5-6.3c0-1.7,0.5-3.2,0.4-4.1
	s1.3-4.2,0.5-5.8c-0.2-0.5-0.3-1-0.3-1.5v0.1c0-1.4,0.1-2.8,0.4-4.2c1.3-1.1,2.7-1.9,4.3-2.3l0.1-0.4l0.3-1c0.1-0.1,0.3-0.2,0.4-0.3
	v-0.4V593l-0.7-3.2c-1.3-5.6,6.1-6.5,6.1-6.5c0.5-0.9,1.2-1.5,2.1-1.9c1.5-0.5,0.3,8.4-0.5,9c-1.1,1.5-2.1,3-3,4.6l0,0l-0.1,0.2
	c0.1,0.1,0.2,0.2,0.3,0.3l-0.3,2v0.3c0.5,0.6,0.9,1.3,1.2,2c-0.8,0.9-1.2,2-1.1,3.2c0.1,1.3,0,2.6-0.5,3.9c0.1-0.1,1-1.1,2-0.9
	s3.7,1.1,3.7,1.1s2,0.3,1.8,0.8s1.4,2.4,1.4,2.4l5.4-5.1c0-0.2,0.1-0.3,0.2-0.5c0.2-0.7,0.4-1.5,0.5-2.2c-0.6-0.1-1.2-0.3-1.7-0.5
	c-0.6-0.2-1.1-0.5-1.5-1c-0.5-0.7-0.7-1.5-0.9-2.3c-0.6-1.5-1.2-3-2-4.5c-1.1-2.5-1.5-5.3-1.1-8c0.1-0.8,0.4-1.6,0.8-2.3
	c0.9-1.2,2.5-1.7,3.6-2.7s1.9-2.4,3.3-3.2c1.3-0.6,2.7-0.7,4.1-0.3c2.7,0.4,5.3,1.4,7.7,2.8c0.7,0.6,1.6,0.9,2.6,0.8
	c0.8-0.2,1.4-0.7,1.8-1.3v-0.1l0.1-0.1c0.6,1.3,0.9,2.6,0.8,4c0,0.2,0,0.4,0,0.7c0,0.1,0,0.2,0,0.2c0,0.1,0,0.1,0,0.2l0,0
	c0,0.1,0,0.2,0,0.3c0.1,0.3,0.3,0.5,0.5,0.7c0.2,0.2,0.3,0.4,0.4,0.6c0-0.1,0-0.2-0.1-0.2c0.3,0.5,0.5,1.1,0.6,1.7
	c0,0.4-0.1,0.9-0.4,1.2c-0.3,0.3-0.6,0.5-0.9,0.7c0.1,0.6,0.2,1.2,0.2,1.8c0,3.7-2,7-5.1,8.9l-0.2,0.5c-0.8,1.9-1.1,3.9-1,5.9
	c0,0.1,0,0.3,0.1,0.4l0.2,0.2l0,0c0,0,8.9,0.1,11-1.8s5.3,4.6,5.3,4.6s3.2,0.6,3.8,0s4.4-0.1,4.4-0.1c1.5-1.4,3.5-2.1,5.6-2
	c1.2-0.9,2.6-1.7,4.1-2.3l0,0h0.1l0,0c0.6-0.2,1.3-0.3,2-0.3c0,0,4.4-3.6,5.7-5.6s7.4-9.2,7.4-9.2v-0.3l0.1-1.1c0.2,0,0.4,0,0.5,0
	c0-0.1,0.1-0.2,0.1-0.4c0.3-1,0.8-2,1.3-3c0,0,0-1.3-0.4-1.7s0.2-5.2,0.2-5.2s4-9.2,7.5-2.3c0,0,6.7,4.5,1.1,9.7
	c0,0-2.2,1.1-2.6,1.9c-0.2,0.6-1,2.1-1.5,3.2l-0.2,0.5h0.1l-0.1,0.9v0.3c1.1,0.6,1.8,1.2,1.6,1.7c-0.3,0.8-0.5,1.6-0.6,2.4
	c0,0-7.8,9.7-8.8,13.9c0,0-20.8,12.4-27.7,13.3l1.2,6.2c0,0,0.4,3.7,0.3,5s0.8,7.3,0.8,7.3s1.2,8.8,2.2,10.1s0.8,6.5,0.8,6.5
	c0.2,2.5,0.7,5.1,1.4,7.5c0.6,2.5,0.7,5,0.3,7.5c0,0,3.5,8-4.8,2.6c0,0-4.1-0.3-8.8-0.4c0,0.2,0,0.3,0,0.5c0,0.6,0,1.3,0,2
	c0.1,4.5,0.1,10.8-0.1,15.6c-0.4,8.4-2.9,25-2.9,25v8.3c0.2,0.8,0.2,1.6,0.2,2.4c0.1,2.9-0.7,5.8-2.3,8.4l-0.6,5.6
	c-0.8,1.9-1.3,3.8-1.5,5.9c0,0.2,0,0.4,0.1,0.5c0.1,0.3,0.1,0.6,0.1,0.8c0.1,2.5-1.4,8.6-1.4,8.6s-0.1,6.1-1,6.5s1,3.5,1.6,4.4
	c0-0.1,0-0.1,0-0.2l0.1,0.2c0.2,0.5,0.3,1,0.3,1.5c0.1,0.8-0.3,1.7-1,2.1c-1.7,1.1-2.7,1.9-1.2,2.3c0.5,0.1,1.1,0.2,1.6,0.3
	c0-0.1,0.1-0.1,0.1-0.2c0.4,0.2,0.7,0.6,0.6,1.1c0,0.7-0.2,1.4-0.5,2.1c-0.6,1.6-1.5,3.1-2.5,4.5l-0.7-0.1c0.1,0.3,0.2,0.5,0.4,0.8
	c0.3,0.4,0.6,0.7,1,0.9c0.4,0.2,0.8,0.4,1.3,0.4c1,0,1.9,0.5,2.6,1.3c0.9,1.2,1.5,2.8-0.3,4.2l-6.5,2.3c0,0-11.2,1.5-10.6-1.1
	s1-4.7,1-4.7c0-1.5,0.3-3.1,0.9-4.5c0.1-0.2,0.3-0.4,0.4-0.7h-0.4c0,0-0.8-5.6-1.9-6.6c-0.3-0.3-0.3-0.4-0.3-0.6
	c-0.1-0.3,0.2-0.5,0.5-0.6c0,0.1,0.1,0.1,0.1,0.2c0.4-0.1,0.7-0.1,1.1-0.1c0,0,0.4-2.9-0.8-4c-0.2-0.2-0.3-0.6-0.2-0.9
	c0-0.4,0-0.8,0.1-1.2l0,0.1c0.7-2.4,1.6-4.6,2.6-6.8c0,0,0.1-2.7-0.6-3.7s0.1-14.4,0.1-14.4s-0.3-6.5,0.5-9.5s-1-6.5-1-6.5v-0.2l0,0
	c0,0,0-0.4,0.1-1v0.1c0.2-1.7,0.5-4.8,0.8-6.2c0.4-2-0.1-11.8-0.1-11.8l-1.5-4.1l-2.9,7.2l-3.1,9.5c-0.9,1.2-1.4,2.6-1.6,4.1
	c0,0.1,0,0.2,0,0.3s0,0.4,0,0.6c0,1.2-0.3,2.4-1,3.4c0,0-0.8,4.5-2.1,5.7c-0.8,0.9-1.3,2.1-1.3,3.4c0,0-1.5,6.5-2.3,7.7
	c-0.6,1-0.6,3.6-0.6,4.5l0,0c0,0.2,0,0.2,0,0.2s-0.2,2.3-0.2,4.3c0,0.2,0,0.5,0,0.7v0c0,0.5,0.1,1.1,0.2,1.6v0.1v-0.3
	c0.3,1.3,0.5,2.7,0.5,4.1c0,2.3-0.3,5.1-1.7,6.8c-2.5,2.8-4,2.5-4,2.5s1.2,3.5,2.7,4.3c0.1,0,0.1,0.1,0.2,0.1c0-0.1,0-0.1,0-0.2
	c0.3,0.4,0.5,0.8,0.4,1.3c-0.1,1.9-0.7,3.7-1.8,5.2c-0.3,0.3-0.8,0.6-1.2,0.7l0.2,0.1c0.2,0.1,0.3,0.2,0.5,0.2
	c0.2,0.1,0.5,0.2,0.7,0.2c1,0,1.9,0.5,2.6,1.3c0.9,1.2,1.5,2.8-0.3,4.2l-6.5,2.3C838,791.9,826.9,793.4,827.5,790.9z"/>
<path fill="#3F3D56" d="M870.4,795l6.3-2.3c1.8-1.4,1.2-3,0.3-4.2c-0.6-0.8-1.5-1.2-2.5-1.3c-0.4-0.1-0.8-0.2-1.2-0.4
	c-0.4-0.2-0.7-0.5-1-0.9c-0.5-0.7-0.7-1.6-0.7-2.4c0,0-6.9-2-8.8,0c-0.3,0.4-0.6,0.8-0.8,1.2c-0.6,1.4-0.9,2.9-0.9,4.5
	c0,0-0.3,2.2-0.9,4.7S870.4,795,870.4,795z"/>
<path fill="#3F3D56" d="M839.4,791.9l6.3-2.3c1.7-1.4,1.2-3,0.3-4.2c-0.6-0.8-1.5-1.2-2.5-1.3c-0.3,0-0.5-0.1-0.7-0.2
	c-0.2-0.1-0.3-0.2-0.5-0.2c-1.8-1-1.7-3.4-1.7-3.4s-6.9-2-8.8,0c-0.3,0.3-0.5,0.6-0.7,0.9c-0.7,1.5-1.1,3.1-1.1,4.8
	c0,0-0.4,2.2-0.9,4.7S839.4,791.9,839.4,791.9z"/>
<path fill="#65617D" d="M829.9,772.9c0.5,0.8,0.9,1.7,1.2,2.7v7c1.8,2.9,11,1.9,12.2,0.3s2.6-5.8,1.2-6.5s-2.6-4.3-2.6-4.3
	s1.5,0.4,3.9-2.5s1.7-9.1,1.2-10.6s0-6.5,0-6.5s-0.1-3.5,0.6-4.7s2.2-7.7,2.2-7.7c0-1.2,0.4-2.4,1.2-3.4c1.2-1.2,2-5.7,2-5.7
	c0.7-1.1,1-2.5,0.9-3.8c-0.3-2.2,1.5-4.6,1.5-4.6l3-9.5l2.8-7.2l1.6,4.2c0,0,0.5,9.7,0.1,11.8s-0.9,7.4-0.9,7.4s1.8,3.5,1,6.5
	s-0.5,9.5-0.5,9.5s-0.8,13.3-0.1,14.4s0.6,3.7,0.6,3.7s-3.6,7.8-2.5,8.8s0.8,4,0.8,4s-2.5,0-1.4,1.1s1.8,6.6,1.8,6.6l10.7,1.2
	c1-1.4,1.8-2.9,2.4-4.5c1.4-3.3-0.3-2.9-1.7-3.3s-0.5-1.2,1.2-2.3s0.7-3.5,0.7-3.5s-2.6-4.3-1.7-4.7s1-6.5,1-6.5s1.8-7.3,1.3-9.2
	s1.4-6.6,1.4-6.6l0.6-5.6c1.9-3.2,2.6-6.9,1.9-10.6v-8.6c0,0,2.5-16.6,2.8-25c0.2-5.4,0.2-12.7,0.1-17.3c0-2.6-0.1-4.3-0.1-4.3
	l-38.2-4c-0.1,1.9-0.3,3.8-0.7,5.7c-0.4,2.1-1,4.8-2,8.2c-1.7,5.5-2,11.3-1.1,17l0.3,12.3c0,0-3.4,8.2-2.7,11
	c0.4,1.7,0.7,3.4,0.7,5.1c0,0-7.5,17.9-6.7,23.2s-2.5,13.4-2.5,13.4S829,771.3,829.9,772.9z"/>
<g opacity="5.000000e-002">
	<path d="M874.1,772.9c0.5-0.3,0.9-0.9,1-1.5l0.1,0.2c0,0,1,2.4-0.7,3.5l-0.5,0.4c-0.3-0.1-0.7-0.1-1-0.2
		C871.5,774.9,872.4,773.9,874.1,772.9z"/>
	<path d="M860.7,772.1c-0.3-0.3-0.3-0.9-0.1-1.8c0.4,0.8,0.6,1.7,0.6,2.6C861,772.6,860.9,772.4,860.7,772.1z"/>
	<path d="M862.3,728.2c0.4,1,0.6,2.1,0.7,3.3c-0.2-0.8-0.5-1.5-0.8-2.2C862.2,729.2,862.2,728.8,862.3,728.2z"/>
	<path d="M838.4,723.5c-0.1-0.3-0.1-0.7-0.1-1c0.1,0.7,0.2,1.3,0.3,1.8C838.5,724.1,838.5,723.9,838.4,723.5z"/>
	<path d="M862.5,759.6c-0.2-0.6-0.3-1.3-0.3-2c0.3,0.8,0.5,1.6,0.5,2.5C862.7,759.9,862.6,759.7,862.5,759.6z"/>
	<path d="M874.4,760.4c0,0-0.1,6.1-1,6.5l0,0c-0.5-1-0.8-2-0.3-2.1c0.9-0.4,1-6.5,1-6.5s1.8-7.3,1.3-9.2s1.4-6.6,1.4-6.6l0.6-5.6
		c1.9-3.2,2.6-6.9,1.9-10.5v-8.6c0,0,2.5-16.6,2.8-25c0.2-5.4,0.2-12.7,0.1-17.3c0-0.8,0-1.6,0-2.2h0.3c0,0,0,1.7,0.1,4.3
		c0.1,4.6,0.1,11.9-0.1,17.3c-0.4,8.4-2.8,25-2.8,25v8.6c0.6,3.6-0.1,7.4-2,10.5l-0.6,5.6c0,0-1.8,4.7-1.4,6.6
		S874.4,760.4,874.4,760.4z"/>
	<path d="M829.5,770.6c0.5,0.8,0.9,1.7,1.2,2.7v1.2c-0.2-0.5-0.5-1-0.9-1.8C829.6,772,829.5,771.2,829.5,770.6L829.5,770.6z"/>
	<path d="M842.4,772c-0.3-0.7-0.6-1.4-0.9-2.1c0,0,1.5,0.4,3.9-2.5c1.7-2.1,1.8-6,1.6-8.5c0.5,1.5,1.2,7.8-1.2,10.6
		C844.2,771.3,843.1,771.9,842.4,772z"/>
	<path d="M847,752.3c-0.2,1.7-0.2,3.5-0.2,5.2c0-0.3-0.1-0.6-0.2-0.8c-0.4-1.5,0-6.5,0-6.5s-0.1-3.5,0.6-4.7s2.2-7.7,2.2-7.7
		c0-1.2,0.4-2.4,1.2-3.4c1.2-1.2,2-5.7,2-5.7c0.7-1.1,1-2.5,0.9-3.8c-0.3-2.2,1.5-4.6,1.5-4.6l3-9.5l2.8-7.2l1.6,4.2v1.3l-1.2-3.4
		l-2.8,7.2l-3,9.5c0,0-1.8,2.4-1.5,4.6c0.2,1.3-0.2,2.7-0.9,3.8c0,0-0.8,4.5-2,5.7c-0.8,0.9-1.2,2.1-1.2,3.4c0,0-1.5,6.5-2.2,7.7
		S847,752.3,847,752.3z"/>
</g>
<path fill="#FFCDD3" d="M839.6,589.7l0.7,3.2v1.4v1.1l3.7,0.4l0.4-0.8l0,0c0.8-1.6,1.8-3.2,2.9-4.6c0.7-0.6,1.9-9.5,0.4-9
	c-0.9,0.3-1.6,1-2,1.9C845.6,583.3,838.3,584.1,839.6,589.7z"/>
<path opacity="0.1" enable-background="new    " d="M840.2,595.4l3.7,0.4l0.4-0.8l0,0c-1-1.2-2.7-1.5-4.1-0.7L840.2,595.4z"/>
<path fill="#DCE6F2" d="M839.3,597.2l4.9,1.1l0.1-0.7l0.3-2c-1.1-1.5-3.2-1.8-4.7-0.7c0,0,0,0,0,0l-0.2,1L839.3,597.2z"/>
<path fill="#FFCDD3" d="M918.1,590.1l5.2,2.8c0,0,0.2-0.4,0.5-1c0.5-1,1.2-2.6,1.4-3.2c0.3-0.9,2.5-2,2.5-2c5.4-5.2-1-9.7-1-9.7
	c-3.4-6.9-7.2,2.3-7.2,2.3s-0.5,4.9-0.2,5.2s0.4,1.7,0.4,1.7c-0.5,1-0.9,2-1.3,3C918.2,589.8,918.1,590.1,918.1,590.1z"/>
<path opacity="0.1" enable-background="new    " d="M918.1,590.1l5.2,2.8c0,0,0.2-0.4,0.5-1c-0.7-0.6-3.3-2.7-4.2-2.6
	c-0.4,0-0.8,0-1.2,0C918.2,589.8,918.1,590.1,918.1,590.1z"/>
<path fill="#DCE6F2" d="M917.5,591.6l5.8,2.9l0.1-1.3l0.1-0.9c0,0-3.4-2.9-4.4-2.8c-0.5,0.1-1,0.1-1.5,0l-0.1,1L917.5,591.6z"/>
<path fill="#FFCDD3" d="M853.8,611.1c0,0,25.4,2.9,20.7,1.3c-3.3-1.1-4.6-3.2-4.9-5.5c-0.1-2,0.2-4,0.9-5.9c0.6-1.6,1.4-3.1,2.3-4.6
	c0,0-19.5-10.7-15.6-1c0.6,1.5,1,3,1.1,4.6c0.1,1.6,0,3.2-0.5,4.7C857.1,607.2,855.7,609.4,853.8,611.1z"/>
<path opacity="0.1" enable-background="new    " d="M857.2,595.5c0.6,1.5,1,3,1.1,4.6c1.8,1.5,3.8,1.4,6.4,1.4c2,0,4.2,0.5,5.8-0.5
	c0.6-1.6,1.4-3.1,2.3-4.6C872.8,596.5,853.3,585.8,857.2,595.5z"/>
<circle fill="#FFCDD3" cx="865.1" cy="591.7" r="10.5"/>
<path opacity="0.1" enable-background="new    " d="M853.8,611.1c0,0,25.4,2.9,20.7,1.3c-3.3-1.1-4.6-3.2-4.9-5.5
	c-1.3-1.4-3.8-2.4-5.5-2.9c-1.5-0.5-3.1-0.5-4.6-0.1c-0.6,0.2-1.2,0.4-1.7,0.8C857.1,607.2,855.7,609.4,853.8,611.1z"/>
<path opacity="0.1" enable-background="new    " d="M839.3,597.2l4.9,1.1l0.1-0.7c-1.1-1.5-2.9-2.1-4.7-1.6L839.3,597.2z"/>
<path opacity="0.1" enable-background="new    " d="M917.5,591.6l5.8,2.9l0.1-1.3c-1.9-1-3.9-1.9-5.9-2.6L917.5,591.6z"/>
<path opacity="0.1" enable-background="new    " d="M843.7,675.3c9.8,1.6,23.9,3.6,26.1,2.9c1.8-0.6,7.7-0.5,12.9-0.3
	c0-2.6-0.1-4.3-0.1-4.3l-38.2-4C844.3,671.5,844.1,673.4,843.7,675.3z"/>
<path fill="#3F3D56" d="M833.9,672.9c0,0,32.4,5.6,35.9,4.5s21.3,0.1,21.3,0.1c8,5.4,4.7-2.6,4.7-2.6c0.4-2.5,0.3-5-0.3-7.5
	c-0.6-2.5-1.1-5-1.3-7.5c0,0,0.2-5.3-0.8-6.5s-2.1-10.1-2.1-10.1s-0.9-6-0.8-7.3s-0.3-5-0.3-5l-1.2-6.2c6.6-0.9,26.8-13.3,26.8-13.3
	c1-4.2,8.5-13.9,8.5-13.9c0.1-0.8,0.3-1.6,0.6-2.4c0.5-1.4-7.4-4.2-7.4-4.2s-5.9,7.3-7.2,9.2s-5.5,5.6-5.5,5.6c-0.7-0.1-1.4,0-2,0.3
	h-0.1l0,0c-1.4,0.6-2.8,1.3-4,2.3c-2-0.1-3.9,0.7-5.4,2c0,0-3.6-0.5-4.2,0.1s-3.7,0-3.7,0s-3.1-6.5-5.1-4.7s-10.6,1.9-10.6,1.9
	c-1.2-1.5-4-2.6-5.7-3.2c-1.5-0.5-3.1-0.5-4.6-0.1c-0.7,0.2-1.3,0.5-1.8,0.9l-5.2,5.1c0,0-1.5-2-1.3-2.4s-1.8-0.8-1.8-0.8
	s-2.6-0.8-3.5-1.1s-1.9,0.8-1.9,0.9c0.4-1.3,0.5-2.6,0.4-3.9c-0.1-1.2,0.3-2.3,1.1-3.2c-3.1-7.6-10.1-1.2-10.1-1.2s-0.8,4.2-0.1,5.7
	s-0.7,5-0.5,5.8s-0.3,2.4-0.3,4.1c0.2,2.1,0.7,4.3,1.4,6.3c0.5,1.4,4.8,4.6,4.8,4.6s0.3,5,2.1,8s0.7,12.9,0.7,12.9s-1.8,7.8-4,10.3
	S833.9,672.9,833.9,672.9z"/>
<path fill="#2D293D" d="M867.9,601.2c-0.1,0.6-0.4,1.1-0.8,1.4c-0.3,0.2-0.7,0.2-1,0.2c-3.2,0.2-6.5,0.3-9.5-0.9
	c-0.6-0.2-1-0.6-1.4-1c-0.4-0.7-0.7-1.5-0.8-2.3c-0.5-1.5-1.2-3-1.9-4.5c-1.1-2.5-1.4-5.3-1-8c0.1-0.8,0.4-1.6,0.8-2.3
	c0.8-1.2,2.4-1.7,3.5-2.7s1.8-2.5,3.2-3.2c1.3-0.6,2.7-0.7,4-0.3c2.6,0.4,5.1,1.4,7.4,2.8c0.7,0.6,1.6,0.9,2.5,0.8
	c0.7-0.2,1.4-0.7,1.8-1.4c0.6,1.4,0.9,3,0.8,4.6c0,0.2,0,0.5,0,0.7c0.1,0.3,0.3,0.5,0.5,0.7c0.8,0.9,1.3,2.4,0.5,3.3
	c-0.3,0.4-0.9,0.6-1.2,1c-0.6,0.7-0.4,1.8-0.4,2.8c0,0.3-0.1,0.7-0.2,0.9c-0.3,0.3-0.8,0.4-1.3,0.3c-0.5-0.1-0.9-0.2-1.4-0.1
	c-0.5,0.2-0.9,0.5-1.2,0.9C869.3,596.8,868.4,599,867.9,601.2z"/>
<path opacity="0.1" enable-background="new    " d="M869.8,607.6c0,0-13.2,1.7-14.3-0.2"/>
<path fill="#E5C699" d="M695.9,711.5h-10c-0.6,0-1,0.4-1,1s0.4,1,1,1h2v13.4h-34.3c-0.2-0.2-0.5-0.4-0.8-0.4h-10c-0.6,0-1,0.4-1,1
	s0.4,1,1,1h2v13.7h-33.1c-0.1-0.4-0.5-0.7-0.9-0.7h-10c-0.6,0-1,0.4-1,1s0.4,1,1,1h1v14.1h-33.6c-0.1-0.1-0.3-0.1-0.4-0.1h-10
	c-0.6,0-1,0.4-1,1s0.4,1,1,1h1V773h-33.2c-0.2-0.3-0.5-0.4-0.8-0.5h-10c-0.6,0-1,0.4-1,1s0.4,1,1,1h1v15h226v-78H695.9z"/>
<linearGradient id="SVGID_5_" gradientUnits="userSpaceOnUse" x1="1318.8217" y1="93.3673" x2="1318.8217" y2="289.0273" gradientTransform="matrix(-0.98 0.22 -0.22 -0.98 1833.7985 580.3756)">
	<stop  offset="0" style="stop-color:#808080;stop-opacity:0.25"/>
	<stop  offset="0.54" style="stop-color:#808080;stop-opacity:0.12"/>
	<stop  offset="1" style="stop-color:#808080;stop-opacity:0.1"/>
</linearGradient>
<path fill="url(#SVGID_5_)" d="M460.3,773c0.7,1.6,1.9,2.9,3.4,3.7c1.5,0.8,2.9,1.8,4.3,2.9c1.5,1.5,2.5,3.5,4.4,4.6
	c0.7,0.4,1.4,0.7,2.2,0.9c0.9,0.3,1.8,0.5,2.7,0.5c2.4,0,4.8-0.4,7-1.2c0.7-0.2,1.5-0.5,2.1-0.9c0.3-0.2,0.6-0.5,0.8-0.8
	c0.5-0.5,0.9-1.1,1.1-1.7c0.1-0.3,0.1-0.7-0.1-1c-0.2-0.4-0.5-0.6-0.9-0.8c-0.6-0.4-1.3-0.8-2-1.1c-0.9-0.3-1.8-0.8-2.6-1.4
	c-0.5-0.5-1-1.1-1.3-1.7c-0.6-1.1-1.1-2.2-1.4-3.5c-0.2-0.8-0.4-1.6-0.8-2.3c-0.4-0.8-1.1-1.5-1.6-2.2c0.2,0,0.5,0,0.7-0.1
	c0.1-1.2-0.2-2.5-0.8-3.5c1,0.1,1.5-1.2,1.3-2.2s-0.6-2-0.2-2.9c0.3-0.5,0.7-0.9,1.1-1.3c1.6-1.7,1.5-4.2,2.2-6.4
	c0.4-1.2,1-2.4,1.6-3.6c1.9-3.5,2.8-7.8,5.9-10.3l2.8-2.2c0.2-0.1,0.3-0.3,0.4-0.5c0.2-0.4-0.2-0.9-0.2-1.3c0.1-0.8,1.1-1.1,1.5-1.9
	c0.1-0.4,0.2-0.7,0.3-1.1c0.3-1.3,1.5-2.1,2.4-3c1.4-1.5,2-3.5,1.8-5.4c-0.1-0.5-0.1-1-0.1-1.5c0.1-0.3,0.2-0.7,0.4-1
	c0.3-1.1,0.4-2.1,0.3-3.2c0.1-1.7,0.3-3.5,0.6-5.2l13.7-3.1c0.1,0.1,0.2,0.2,0.3,0.3c1.2,1.2,1.8,3,3,4.3l1.6,1.7
	c0.3,0.3,0.6,0.8,0.4,1.2s-0.4,0.4-0.6,0.6c-0.3,0.5-0.2,1.1,0.3,1.5c0.2,0.1,0.4,0.2,0.7,0.2c-0.6,0.9-0.4,2.2,0.6,2.9
	c0.2,0.1,0.3,0.2,0.5,0.2c-0.3,0.6-0.7,1.2-1.1,1.7c0.2,0.3,0.3,0.6,0.3,0.9c-0.1,0.2-0.1,0.4-0.2,0.6c-0.1,0.4,0,0.9,0.1,1.3
	c0.9,3.2,0.9,6.6,0,9.8c-0.1,0.4-0.2,0.9-0.3,1.3c0,0.4,0.1,0.8,0.2,1.1c0.5,1.7,1.4,3.4,0.7,5c-0.2,0.4-0.4,0.8-0.5,1.2
	c-0.4,1.2,0.5,2.4,0.9,3.5c0.5,1.6,0.6,3.3,0.4,5c-0.1,2.3-0.2,4.6-0.3,6.9c-0.1,0.4,0,0.8,0.1,1.3c0.3,0.5,0.8,0.9,1.4,1.1
	c-0.1,0.5-0.3,0.9-0.4,1.4c-0.2-0.4-0.7-0.5-1.1-0.3c-0.1,0.1-0.2,0.1-0.3,0.2c-0.1,0.2-0.2,0.4-0.2,0.7c0,1.7,0.3,3.3,0.8,4.9
	c0.1,0.3,0.1,0.5,0.1,0.8c-0.1,0.3-0.2,0.5-0.3,0.8c0,0.1,0,0.1-0.1,0.2c-0.1,0.8,0,1.6,0.2,2.4c0.1,0.5,0.3,0.9,0.7,1.3
	c0.3,0.2,0.6,0.3,0.9,0.3c4.8,0.5,9.4-2.6,14.2-2c1,0.1,1.9,0.4,2.9,0.5c1.2,0.1,2.3,0,3.5-0.2c1.6-0.2,3.2-0.5,4.8-0.8
	c1.2-0.2,2.4-0.6,3.5-1.1c1.1-0.6,1.9-1.5,2.2-2.7c0.1-0.5,0.1-1.1-0.2-1.5c-0.1-0.2-0.2-0.3-0.4-0.4c-0.4-0.3-0.8-0.5-1.2-0.6
	l-1.9-0.7c-0.9-0.4-1.8-0.6-2.8-0.7c-0.7-0.1-1.4,0-2.1,0c-2.4-0.1-4.6-1.5-6.6-2.9l-2.7-1.8c-0.5-0.5-1.2-0.6-1.9-0.3l-0.4,0.1
	l1.7-0.9c0.1-8.2,0.1-16.5-0.1-24.7c0-2-0.1-4.1-0.6-6.1c-0.3-1.1-0.6-2.6,0.4-3.3c0.3-0.9-0.3-1.8-0.5-2.7c-0.2-0.9,0.1-2.2,1-2.2
	c-0.9-1.6-0.9-3.6-0.9-5.4c0-1.5-0.1-3-0.3-4.6c-0.1-1.9-0.7-3.7-1.6-5.4l13.5-3.1l-0.4-2l2-0.5l-10.9-47.8c0.5-0.2,0.8-0.6,0.8-1.1
	c0-0.5-0.5-0.9-0.4-1.3c0.1-0.3,0.4-0.4,0.5-0.7c0.3-0.6,0.3-1.3-0.2-1.8c-0.1-0.1-0.2-0.3-0.2-0.4c0-0.1,0-0.2,0.1-0.3
	c0.4-1,0.2-2.1-0.7-2.8c-0.1-0.1-0.2-0.2-0.4-0.2c-0.3,0-0.6,0.1-0.9,0s-0.3-0.3-0.7-0.3h-0.1l-4.1-18.1c0.3-0.9,0.5-1.8,0.7-2.7
	c0.3-1.6,0.2-3.3-0.4-4.8c0.9-0.5,1.7-1.1,2.4-1.8c0.5-0.4,0.6-1.1,0.3-1.7c-0.8-2.2-2.2-4.1-4-5.5c-0.6-0.4-1.9-1.6-2.8-1.3
	c0.2-0.3,0.4-0.6,0.7-0.9c0.5-0.5,0.9-1,1.3-1.6c5.1-2.1,8-7.6,6.8-13c0-0.2-0.1-0.3-0.1-0.5c0.6,0.1,1.1-0.1,1.5-0.6
	c0.4-0.6,0.5-1.3,0.2-2c-0.3-0.6-0.6-1.2-1-1.8c-0.8-1.4-0.6-3.1-1.3-4.4c-0.8-1.1-1.7-2.1-2.7-3c-2.1-1.6-4.7-2.2-7.3-1.7
	c-2.5,0.6-4.9,1.7-6.9,3.4c-0.6,0.5-1.2,1-1.9,1.3c-1.1,0.5-2.5,0.5-3.5,1.3c-1.3,1.1-1.1,3-0.6,4.6s1.2,3.2,0.6,4.8
	c-0.2,0.5-0.4,0.9-0.6,1.4c-0.1,0.9,0.2,1.8,0.7,2.6c0.1-0.2,0.2-0.4,0.3-0.6c0,0,0,0,0,0.1c0.1,0.3,0.1,0.5,0.2,0.8
	c-0.1,0-0.2,0-0.3,0.1c-0.5,0.2-0.7,0.8-1.1,1.1s-1.4,0.6-1.6,1.2c-0.1,0.3,0,0.6-0.1,0.9c-0.2,0.6-1.1,0.6-1.5,1
	c-0.3,0.4-0.4,0.9-0.3,1.3c0.1,0.2,0.2,0.5,0.3,0.7c-0.1,0.3,0,0.6,0.1,0.9l-5.6,1.3c-0.9,0.2-1.8,0.5-2.6,0.8
	c-0.8,0.4-1.5,1-1.9,1.9c0,0.1-0.1,0.2-0.2,0.3c-0.1,0-0.2,0-0.3,0c-1-0.2-2-0.2-2.9,0.1c-2.9,1-5.5,2.9-7.4,5.4
	c-0.4,0.4-0.6,0.9-0.7,1.4c-0.1,0.6,0.3,1.3,0,1.8l-0.3,0.1c-0.8,0.3-1.6,0.6-2.4,1c-0.8,0.5-1.5,1.1-2.3,1.7
	c-3.1,2.3-7.2,3.4-9.4,6.6c-0.7,1-1.2,2.3-2.3,2.9c-0.5,0.2-1,0.5-1.5,0.8c-0.9,0.7-1,1.9-1.2,3.1l-19.6,4.5l0.4,1.9l-2,0.5
	l18.2,79.9l16.8-3.8c0,0.4,0.1,0.8,0.2,1.1c0.2,1.2,0.6,2.3,1.1,3.3c-0.8,0.3-1.3,1-1.3,1.8c-0.1,0.8,0,1.6-0.1,2.3
	c-0.3,1.4-1.5,2.3-2.5,3.3c-4.5,4.6-5.4,11.3-7.7,17.3c-1.1,2.8-2.5,5.4-3.2,8.3c-0.8,3.3-0.9,7-3.4,9.3c-0.2,0.2-0.4,0.4-0.6,0.7
	c-0.1,0.2-0.1,0.4,0,0.6c0.2,0.6,0.5,1.1,1,1.5l-0.1,0.2c-0.1,0-0.2,0-0.3,0c-0.5,0-0.8,0.7-1,1.1c-0.7,1.4-1.2,2.9-1.3,4.5
	c-0.1,0-0.3,0-0.4,0c-0.6,0.1-1.1,0.5-1.4,1.1C460,771.6,460,772.4,460.3,773z M525.4,607.1L525.4,607.1h-0.2
	c0.2-0.5,0.4-0.9,0.6-1.4C525.6,606.2,525.5,606.7,525.4,607.1z M471.9,766.9c-0.1,0.3-0.3,0.6-0.6,0.9h-0.1c0-0.1,0.1-0.2,0.1-0.3
	l0.2-0.6L471.9,766.9z"/>
<path fill="#3F3D56" d="M530.4,762.9c-3,1.1-6.2,2.1-9.4,1.8c-0.5,0-1.1-0.2-1.1-0.7c0-0.2,0-0.3,0.1-0.5c0.7-1.9,1.3-3.9,1.6-6
	c0-0.1,0-0.2,0.1-0.3c0.1-0.1,0.2-0.1,0.3-0.1c1.5,0,2.8,0.7,4.3,0.7c0.7,0,1.5-0.1,2.2-0.3c0.6-0.2,1.3-0.9,1.9-1
	C530.5,758.6,530.2,760.7,530.4,762.9z"/>
<path fill="#3F3D56" d="M470.3,771c-2.4-0.9-4.8-1.9-6.5-3.8c-0.1-0.1-0.2-0.2-0.2-0.4c0-0.2,0-0.3,0.1-0.5c0.7-2.1,1.9-4,3.3-5.7
	c1.1,0.4,2.1,1,3,1.7c0.6,0.4,2.3,1,2.5,1.8c0.1,0.5-0.3,1.1-0.5,1.6c-0.2,0.6-0.4,1.2-0.6,1.8C470.8,768.6,470.5,769.8,470.3,771z"
	/>
<path fill="#65617D" d="M519.6,771.9c0.1,0.5,0.3,0.9,0.7,1.3c0.3,0.2,0.6,0.3,0.9,0.3c4.7,0.6,9.3-2.5,14-2c1,0.1,1.9,0.4,2.9,0.5
	c1.1,0.1,2.3,0,3.4-0.2c1.6-0.2,3.1-0.5,4.7-0.8c1.2-0.2,2.3-0.5,3.4-1.1c1.1-0.6,1.9-1.6,2.2-2.7c0.1-0.5,0-1.1-0.2-1.5
	c-0.1-0.2-0.2-0.3-0.4-0.4c-0.4-0.3-0.8-0.5-1.2-0.6l-1.8-0.7c-0.9-0.4-1.8-0.6-2.7-0.7c-0.7-0.1-1.4,0-2.1,0
	c-2.4-0.2-4.5-1.5-6.5-2.9l-2.7-1.8c-0.3-0.2-0.6-0.4-0.9-0.4c-0.3,0-0.6,0-1,0.1c-2.1,0.6-4,1.8-5.5,3.3c-0.4,0.4-0.8,0.8-1.3,1.2
	c-1.3,0.7-2.8,0.9-4.2,0.4c-0.6-0.2-0.5-0.4-0.9-0.8s-1-0.7-1.4-0.1c-0.1,0.2-0.2,0.4-0.2,0.7c0,1.7,0.3,3.3,0.8,4.9
	c0.1,0.3,0.1,0.5,0.1,0.8c-0.1,0.3-0.2,0.5-0.3,0.8c0,0.1,0,0.1,0,0.2C519.3,770.3,519.4,771.1,519.6,771.9z"/>
<path fill="#3F3D56" d="M519.6,771.9c0.1,0.5,0.3,0.9,0.7,1.3c0.3,0.2,0.6,0.3,0.9,0.3c4.7,0.6,9.3-2.5,14-2c1,0.1,1.9,0.4,2.9,0.5
	c1.1,0.1,2.3,0,3.4-0.2c1.6-0.2,3.1-0.5,4.7-0.8c1.2-0.2,2.3-0.5,3.4-1.1c1.1-0.6,1.9-1.6,2.2-2.7c0.1-0.5,0-1.1-0.2-1.5
	c-0.1-0.2-0.2-0.3-0.4-0.4c-0.1,0.6-0.2,1.3-0.3,1.6c-0.3,0.9-0.9,1.6-1.7,1.9c-0.6,0.2-1.3,0.2-1.9,0.2c-4.2-0.1-8.4,0.9-12.5,0.2
	c-1.4-0.3-2.8-0.5-4.3-0.6c-1.4,0.1-2.9,0.3-4.3,0.6c-2.3,0.3-4.6,0.1-6.8,0.3C519.3,770.3,519.4,771.1,519.6,771.9z"/>
<path fill="#65617D" d="M460.3,773c0.7,1.6,1.9,2.9,3.4,3.7c1.5,0.8,2.9,1.8,4.2,2.9c1.5,1.5,2.5,3.5,4.3,4.6
	c0.7,0.4,1.4,0.7,2.2,0.9c0.9,0.3,1.8,0.5,2.7,0.6c2.4,0.1,4.7-0.3,6.9-1.2c0.7-0.2,1.4-0.5,2.1-0.9c0.3-0.2,0.5-0.5,0.7-0.8
	c0.5-0.5,0.9-1.1,1.1-1.7c0.1-0.3,0.1-0.7-0.1-1c-0.2-0.4-0.5-0.6-0.9-0.8c-0.6-0.4-1.3-0.8-2-1.1c-0.9-0.3-1.8-0.8-2.6-1.4
	c-0.5-0.5-0.9-1.1-1.3-1.7c-0.6-1.1-1.1-2.3-1.4-3.5c-0.2-0.8-0.4-1.6-0.8-2.3c-0.6-1.2-1.8-2.1-2-3.4c0-0.2-0.1-0.4-0.2-0.5
	c-0.1-0.1-0.3-0.2-0.5-0.2c-0.8-0.1-1.6-0.1-2.4,0c-0.8,0.1-1.5,0.6-1.9,1.3c-0.2,0.5-0.3,1-0.8,1.3c-0.2,0.1-0.5,0.2-0.7,0.2
	c-1.2,0.3-2.4,0.2-3.5-0.3c-1-0.6-1.8-1.5-2-2.7c-0.1-0.4,0-0.9-0.7-0.9c-0.7,0.1-0.8,0.7-1,1.1c-0.7,1.4-1.2,2.9-1.3,4.5
	c-0.1,0-0.3,0-0.4,0c-0.6,0.1-1.1,0.5-1.3,1.1C459.9,771.5,460,772.3,460.3,773z"/>
<path fill="#3F3D56" d="M460.3,773c0.7,1.6,1.9,2.9,3.4,3.7c1.5,0.8,2.9,1.8,4.2,2.9c1.5,1.5,2.5,3.5,4.3,4.6
	c0.7,0.4,1.4,0.7,2.2,0.9c0.9,0.3,1.8,0.5,2.7,0.6c2.4,0.1,4.7-0.3,6.9-1.2c0.7-0.2,1.4-0.5,2.1-0.9c0.3-0.2,0.5-0.5,0.7-0.8
	c0.5-0.5,0.9-1.1,1.1-1.7c-0.5-0.1-1-0.1-1.5,0c-1,0.3-1.5,1.4-2.4,1.9c-1.3,0.7-2.9,0.1-4.4,0.1c-1,0-1.9,0.3-2.9,0.2
	c-0.8-0.1-1.6-0.4-2.4-0.8c-1-0.4-1.9-1-2.7-1.6c-0.7-0.7-1.3-1.5-1.9-2.3c-1.1-1.6-2.4-3-3.8-4.4c-0.2-0.2-0.4-0.4-0.7-0.6
	c-0.3-0.1-0.6-0.2-0.8-0.3c-1-0.6-1.9-1.5-2.3-2.7c-0.2-0.3-0.4-0.6-0.6-0.9c-0.6,0.1-1.1,0.5-1.3,1.1
	C459.9,771.5,460,772.3,460.3,773z"/>
<path fill="#A1616A" d="M525.5,604.1c-1,1.1-1.7,2.5-2.1,3.9c-0.4,1.4-1.9,12.3-1.3,13.7c-1.5-1-6.5-0.1-8-1c-0.6-0.4-4-2.4-4.6-2.9
	s-4-1.1-4.5-1.6c-1.8-2,6.6-13.1,4.8-15c-0.2-0.1-0.3-0.4-0.1-0.6c0,0,0,0,0-0.1c0.7-1,1.6-1.9,2.5-2.7c0.9-0.8,1.5-2,1.7-3.3
	c1.1,0.2,2.1,0.6,3.1,1.2c2.3,1.2,4.5,2.4,6.8,3.7c0.9,0.5,2.5,1.1,3,1.9S526.1,603.4,525.5,604.1z"/>
<path fill="#D7D9E1" d="M507.9,604.2c1.8,0.7,3.6,1.6,5.3,2.6c1.7,0.9,3,2.2,3.9,3.9c0.3,0.7,0.4,1.4,0.7,2.1c1.2,3,4.3,4.6,6.2,7.2
	c0.5,0.8,1,1.7,1.4,2.6c0.7,1.7,1.3,3.5,1.8,5.3c0.4,1.8-1,3.3-1.3,5.1c-0.2,1.7-0.2,3.5,0,5.2c0,3.3-0.2,6.6-0.7,9.9
	c-0.9,6.9-4.4,26.3-5.2,33.3c-7.5-0.2-27.3,0-34.5-2.3c-2.4-0.8,11-18.7,8.6-19.1c-0.5,0-0.9-0.3-0.9-0.8c0-0.1,0-0.1,0-0.2
	c0-10.3,5.2-20,6.2-30.2c0.4-3.6,1.7-6.8,2.5-10.3c0.7-3.2,0.7-6.5,1.7-9.6c0.2-0.6,0.5-1.2,0.9-1.8c0.3-0.4,0.7-0.8,1.1-1.1
	C506.3,605.4,507.1,604.9,507.9,604.2z"/>
<circle fill="#A1616A" cx="522.4" cy="592" r="11.4"/>
<path fill="#3F3D56" d="M512.3,599.8c-1.4-0.8-3.1-0.7-4.3,0.3c-0.7,0.5-1,1.4-0.8,2.3l-5.5,1.3c-0.9,0.2-1.7,0.5-2.6,0.8
	c-0.8,0.4-1.5,1-1.9,1.9c-0.1,0.1-0.1,0.2-0.2,0.3c-0.1,0-0.2,0-0.3,0c-0.9-0.2-1.9-0.2-2.9,0.1c-2.9,1-5.4,2.9-7.3,5.4
	c-0.4,0.4-0.6,0.9-0.7,1.4c0,0.7,0.4,1.4,0,2c1.2,5.2,0.5,10.4,0.5,15.7c-0.2,1-0.5,1.9-1.1,2.8c-0.6,1-1,2-1.2,3.1
	c-0.4,2.8,1.7,5.6,1.3,8.4c-0.3,1.2-0.7,2.3-1.2,3.4c-0.6,1.3-0.9,2.8-0.7,4.2c0.1,0.6,0.3,1.3,0.4,1.9c0.1,0.9,0.2,1.7,0.1,2.6
	c0,1.6-0.1,3.2-0.2,4.8c-0.1,2.6-0.5,5.5-2.4,7.3c5.5-0.3,11.3-0.7,15.9-3.7c0.6-0.4,1.2-0.9,1.8-1.4c1.5-1.7,1.9-4.1,2.2-6.4
	c0.5-2.5,0.6-5.1,0.3-7.7c-0.2-0.8-0.3-1.6-0.2-2.4c0.2-1.5,1.4-2.6,2.5-3.7c1.2-1.1,2.3-2.4,3.1-3.8c0.8-1.4,1-3.1,0.5-4.7
	c-0.3-0.8-0.7-1.4-1-2.2c-0.3-0.8,0-1.6,0.6-2.1c3.6-2,4.4-7,4.4-11.1c-0.1-2.1-0.4-4.2-0.9-6.3l-0.9-4c0.8-1.2,1.2-2.7,0.9-4.2
	c-0.1-0.4-0.2-0.8-0.3-1.3c0.1-0.6,0.3-1.1,0.6-1.5C511.4,602.2,511.9,601,512.3,599.8z"/>
<path fill="#3F3D56" d="M527,609.8c0.3,1.3,0.6,2.5,1,3.7c0.2,0.5,0.5,0.8,0.7,1.3c0.8,1.7,1.1,3.5,0.7,5.3
	c-0.4,1.8-0.9,3.5-1.6,5.2c-0.2,0.6-0.4,1.2-0.5,1.8c0,0.6,0,1.3,0.1,1.9c0.3,2.5,0.4,5.1,0.4,7.7c0.1,2.2-0.3,4.5-1.3,6.5
	c-0.2,0.4-0.5,0.8-0.9,1c-0.3,0.1-0.6,0.1-0.9,0l-3.1-0.4c-0.3,0-0.5-0.1-0.7-0.2c-0.3-0.2-0.6-0.6-0.7-1c-0.6-2.3-0.7-4.7-0.3-7
	c0.8-7.1,2.4-14.1,2.4-21.2c0-2-0.5-4.9,0.6-6.7c0.4-0.8,0.3-0.4,1-0.3c0.4,0.1,0.7,0.2,1.1,0.3C525.9,608,526.7,608.8,527,609.8z"
	/>
<path fill="#464353" d="M482,662.9"/>
<path fill="#58585A" d="M521.2,624.1c0.1,4.2,0.3,8.3,0.4,12.5l-11.7-0.4c-0.2-1.2-0.1-2.4,0.2-3.5c0.4-2.8-0.2-5.6,0-8.3
	c0.2-2.1,0.8-4.2,1-6.3c0.1-1.2,0-2.5,0-3.7c0.1-1.2,0.3-2.4,0.5-3.7c0.3-1.7,0.7-3.4,1.4-5c1.5,0.2,3.2,0.5,4.3,1.6
	c0.6,0.6,1,1.4,1.2,2.2c0.8,2.4,0.4,5.1,1.3,7.5C520.7,619.3,521.2,621.7,521.2,624.1z"/>
<path fill="#65617D" d="M519.8,680.4c-0.1,2.5,1.4,4.8,2.6,6.9c1.9,3.3,3.5,6.7,4.7,10.3c0.3,0.9,0.6,1.8,1.2,2.6
	c0.6,0.7,1.2,1.3,1.8,1.9c1.6,1.7,2.1,4.1,2.3,6.4c0.2,1.5,0.3,3,0.3,4.6c0,1.9,0,3.8,0.9,5.5c-0.9,0-1.3,1.3-1,2.2s0.8,1.8,0.5,2.7
	c-1,0.6-0.7,2.1-0.4,3.3c0.4,2,0.6,4,0.6,6.1c0.1,8.2,0.2,16.5,0.1,24.7c-3.7,2.1-8,4.5-12.2,3.6c-0.8-0.1-1.5-0.5-1.9-1.2
	c-0.1-0.4-0.2-0.8-0.1-1.2l0.3-6.9c0.2-1.7,0-3.4-0.5-5c-0.4-1.2-1.3-2.3-0.9-3.5c0.1-0.4,0.4-0.8,0.5-1.2c0.6-1.6-0.3-3.3-0.7-5
	c-0.1-0.4-0.2-0.8-0.2-1.1c0-0.5,0.1-0.9,0.3-1.3c0.8-3.2,0.8-6.6,0-9.8c-0.1-0.4-0.2-0.8-0.1-1.3c0.1-0.2,0.1-0.4,0.2-0.6
	c0-0.3-0.1-0.6-0.3-0.9c0.4-0.5,0.8-1.1,1.1-1.7c-1.1-0.4-1.7-1.6-1.3-2.6c0.1-0.2,0.1-0.3,0.2-0.4c-0.6,0-1.1-0.5-1.1-1.1
	c0-0.2,0.1-0.4,0.2-0.6c0.2-0.2,0.5-0.4,0.6-0.6s-0.1-0.8-0.4-1.2l-1.5-1.7c-1.1-1.3-1.8-3.1-2.9-4.3c-1.7-1.8-3.1-3.8-4.4-5.9
	l-5.1-8l-1.7,2.3c-0.6,0.7-1,1.5-1.3,2.4c-0.1,0.8-0.1,1.7,0,2.5c0.3,4.9-1.8,9.7-1.8,14.6c0.1,1.1,0,2.2-0.3,3.3
	c-0.2,0.3-0.3,0.7-0.4,1c-0.1,0.5,0,1,0.1,1.5c0.2,2-0.4,4-1.7,5.4c-0.9,1-2.1,1.8-2.4,3c0,0.4-0.1,0.8-0.3,1.1
	c-0.4,0.7-1.4,1-1.5,1.9c0,0.5,0.3,0.9,0.2,1.3c-0.1,0.2-0.2,0.4-0.4,0.5l-2.7,2.2c-3,2.5-3.9,6.8-5.8,10.3
	c-0.7,1.1-1.2,2.3-1.6,3.6c-0.6,2.2-0.6,4.8-2.1,6.4c-0.4,0.4-0.8,0.8-1.1,1.3c-0.4,0.9,0.1,1.9,0.2,2.9s-0.3,2.3-1.3,2.2
	c0.6,1.1,0.9,2.3,0.8,3.5c-4,0.7-8.2,0-11.8-1.9c-1.1-0.5-2-1.4-2.4-2.6c-0.1-0.2-0.1-0.4,0-0.6c0.1-0.3,0.3-0.5,0.6-0.7
	c2.5-2.2,2.6-6,3.3-9.2c0.7-2.9,2-5.5,3.1-8.3c2.2-5.9,3.1-12.7,7.5-17.2c1-1,2.1-2,2.4-3.3c0.2-0.8,0-1.6,0.1-2.3
	c0-0.8,0.5-1.5,1.3-1.8c-0.6-1-1-2.2-1.1-3.3c-0.1-0.5-0.2-1-0.2-1.5c0.1-0.6,0.2-1.1,0.4-1.6c0.8-2.6,0.9-5.4,0.2-8
	c-0.5-1.3-0.8-2.7-0.8-4.1c0.1-0.7,0.3-1.4,0.4-2.1c0.1-1.2,0-2.5-0.2-3.7L480,690c-0.3-1.5-0.4-3.1-0.4-4.6
	c0.1-3.7-2.3-18.6,0.6-21c2.9-2.4,10.9,7.7,14.6,7.1c1.6-0.3,3.3-0.4,4.9-0.2c2.6,0.5,5.1,1.4,7.4,2.8l7.9,4.1
	C516.5,679.1,518.1,679.8,519.8,680.4z"/>
<path fill="#3F3D56" d="M530,577.3c-2-1.6-4.7-2.2-7.2-1.7c-2.5,0.6-4.8,1.7-6.7,3.4c-0.6,0.5-1.2,1-1.9,1.3
	c-1.1,0.5-2.5,0.5-3.4,1.3c-1.2,1.1-1.1,3-0.6,4.6c0.5,1.6,1.2,3.2,0.6,4.8c-0.2,0.5-0.4,0.9-0.5,1.4c-0.1,0.9,0.2,1.8,0.7,2.6
	c0.4-0.6,0.7-1.3,1-2c0.4-0.7,1.1-1.2,1.8-1c0.7,0.2,0.9,1,1,1.7c0.1,0.7,0.5,1.4,1.2,1.5c0.6,0,1.1-0.3,1.3-0.9
	c0.8-1.5-0.1-3.6,0.6-5.1c0.4-0.9,1.4-1.5,1.8-2.4c0.3-0.7,0.2-1.5,0.5-2.3c0.2-0.8,1-1.5,1.7-1.1c0.2,0.2,0.5,0.3,0.6,0.6
	c1,0.9,2.5,1,3.7,0.3c0.4-0.4,0.8-0.7,1.3-1c0.7-0.2,1.4,0,1.9,0.5c0.5,0.5,0.8,1.2,0.9,1.9c0.1,1,0.4,1.9,1,2.6
	c0.3,0.2,0.6,0.4,1,0.5c0.9,0.4,1.9,0.3,2.7-0.3c0.4-0.6,0.5-1.4,0.2-2c-0.3-0.6-0.6-1.2-1-1.8c-0.8-1.4-0.6-3.1-1.3-4.4
	C532,579.1,531,578.1,530,577.3z"/>
<path fill="#58585A" d="M531.6,611.8c0.1,0.3,0.2,0.7,0.1,1c-0.1,0.3-0.2,0.5-0.4,0.7c-1.4,1.3-3,2.3-4.9,2.9
	c-0.3,0.1-0.5,0.2-0.7,0.3c-0.3,0.5-0.3,1.1,0,1.5c0.3,0.4,0.6,0.9,0.7,1.5c0.1,1-1,1.7-1.9,2.1c-1.3,0.6-2.8,0.6-4.1,0.1
	c-0.9-0.5-1.6-1.2-2.2-2.1c-4.1-5.6-6.6-12.2-10.8-17.8c-0.3-0.4-0.5-0.8-0.7-1.2c-0.2-0.4-0.1-0.9,0.2-1.3c0.4-0.4,1.3-0.4,1.5-1
	c0.1-0.3,0-0.6,0.1-0.9c0.2-0.6,1-0.8,1.5-1.2s0.6-0.9,1-1.1c0.5-0.1,1,0,1.4,0.3c2,1.1,3.3,3.1,4.6,4.9c2.1,2.8,4.3,5.3,6.8,7.8
	c-0.3-0.3,0.4-3.1,0.8-3.3c0.8-0.4,2.2,0.9,2.8,1.3C529.4,607.7,530.8,609.6,531.6,611.8z"/>
<rect x="454.1" y="628.1" transform="matrix(0.9751 -0.2215 0.2215 0.9751 -135.9445 126.3265)" opacity="0.1" enable-background="new    " width="82" height="82"/>
<rect x="455.6" y="625.8" transform="matrix(0.9751 -0.2215 0.2215 0.9751 -135.3788 126.5993)" fill="#EDEDF4" width="82" height="82"/>
<path fill="#8CCF4D" d="M519.9,659.7c-2.8-12.1-14.9-19.8-27-17c-0.6,0.1-1.2,0.3-1.7,0.5l5.4,23.6l23.6-5.4
	C520.2,660.9,520.1,660.3,519.9,659.7z"/>
<path fill="#FA5959" d="M517.7,665.6l-23.7,5.4l-5.4-23.6c-11.9,3.7-18.6,16.3-14.9,28.2s16.3,18.6,28.2,14.9
	C512.6,687.1,519.3,676.6,517.7,665.6L517.7,665.6z"/>
<path fill="#A1616A" d="M481.6,663.3c1.1,0.6,2.2,1.3,3.1,2.1c1,0.8,1.7,1.9,1.9,3.2c0.1,0.4,0,0.7-0.1,1.1
	c-0.2,0.3-0.5,0.5-0.9,0.5c-0.2-0.1-0.4-0.2-0.6-0.3c-0.6-0.5-1.3-0.9-2-1.3c-0.3-0.2-0.6-0.3-0.8-0.2c-0.1,0.1-0.2,0.2-0.3,0.3
	c-0.3,0.3-0.4,0.8-0.4,1.2c0.1,0.8,0.5,1.4,1.2,1.8c0.6,0.4,1.2,0.9,1.6,1.5c0.1,0.2,0.2,0.4,0.1,0.6c-0.1,0.2-0.2,0.3-0.3,0.4
	c-1.2,1.1-2.8,1.5-4.4,1.3c-1-0.2-2-0.6-3.1-0.8c-0.4,0-0.9-0.1-1.3-0.2c-0.6-0.2-1.2-0.7-1.4-1.4c-0.3-0.6-0.5-1.3-0.5-2
	c-0.5-2.6-0.5-5.2-0.1-7.8c0-0.2,0.1-0.3,0.2-0.5c0.1-0.1,0.3-0.2,0.4-0.2c1.2-0.4,3-1.5,4.3-1.3c0.5,0.1,0.9,0.4,1.2,0.7
	C479.9,662.3,481.5,663,481.6,663.3z"/>
<path fill="#3F3D56" d="M481.8,662.2c-0.2-1.2,0.5-4.2-1.8-3.9c-0.3-1.2,1.3-2.4,0.7-3.6c-0.2-0.4-0.6-0.7-0.8-1.1
	c-0.4-1.2,1.7-2.4,1-3.5c-0.3-0.4-0.8-0.6-1-1c-0.5-1,1.3-2,1.1-3.1c-0.1-0.4-0.4-0.7-0.4-1.1c0-0.5,0.1-0.9,0.4-1.4
	c0.4-1.2-0.3-2.7,0.6-3.5c-0.7,0.2-1.2-0.8-1-1.5s0.6-1.4,0.5-2.1c-0.1-0.3-0.2-0.5-0.2-0.8c0-0.7,1.1-1,1.2-1.8
	c0-0.3-0.1-0.5-0.1-0.8c0-0.6,0.4-1.1,0.9-1.3c0.5-0.2,1-0.5,1.4-0.9c0.3-0.3,0.6-0.8,1-0.7c0.1,0,0.3,0.2,0.4,0.3
	c0.5,0.4,1.3,0,1.7-0.5c1.2-1.5,1.8-3.5,1.6-5.5c-0.1-2-0.5-3.9-0.5-5.8c0-0.6,0-1.2,0.1-1.8c0.2-0.6,0.3-1.2,0.4-1.9
	c-0.2-1.1-2.2,0.2-3,0.5c-0.8,0.3-1.6,0.6-2.3,1c-0.8,0.5-1.5,1.1-2.2,1.7c-3.1,2.3-7.1,3.4-9.3,6.5c-0.7,1-1.2,2.3-2.3,2.9
	c-0.5,0.2-1,0.5-1.5,0.8c-1.2,0.9-1,2.7-1.4,4.1c-0.1,0.4-0.3,0.8-0.4,1.2c0,0.5,0,0.9,0.1,1.4l0.6,3.3c1,5.5,2.3,11,4,16.3
	c0.7,1.7,1.1,3.5,1.2,5.4c0,0.5-0.1,1-0.1,1.5c0,0.6,0.1,1.2,0.2,1.7l0.4,2.1c0,0.2,0.1,0.3,0.2,0.5c0.2,0.1,0.4,0.1,0.6,0
	c2.9-0.9,5.5-3.3,8.5-2.9"/>
<path fill="#A1616A" d="M534.5,641.2c0.1,0,0.3,0.1,0.4,0.2c0.8,0.7,1.1,1.8,0.7,2.8c-0.1,0.1-0.1,0.2-0.1,0.3
	c0,0.2,0.1,0.3,0.2,0.4c0.4,0.5,0.5,1.2,0.2,1.8c-0.2,0.2-0.4,0.4-0.5,0.6c-0.1,0.5,0.3,0.9,0.4,1.3c0.1,0.6-0.6,1.1-1.2,1.3
	c-0.4,0.2-1,0.2-1.4,0c-0.3-0.3-0.4-0.8-0.3-1.2c0.2-0.4,0.4-0.8,0.7-1.1c-0.7,0.1-1.4-0.3-1.6-0.9c-0.2-0.7-0.1-1.4,0.4-1.9
	c0.1-0.1,0.2-0.3,0.2-0.4c0-0.2-0.2-0.4-0.4-0.5c-0.8-0.5-1.8-2.1-0.5-2.8c0.4-0.2,0.9-0.3,1.4-0.3c0.4,0,0.4,0.2,0.7,0.3
	C533.9,641.3,534.2,641.1,534.5,641.2z"/>
<path opacity="0.1" enable-background="new    " d="M510.2,596.9c0.7-0.1,1.4,0,1.9,0.5c0.6,0.6,1,1.4,1.3,2.2
	c1,2.5,2.5,4.9,4.5,6.8"/>
<path opacity="0.1" enable-background="new    " d="M508.3,599.3c1-0.2,1.9,0.1,2.6,0.8c0.5,0.7,0.8,1.4,1.1,2.2
	c0.8,1.7,2,3.2,3.4,4.4"/>
</svg>
